<?xml version="1.0" encoding="utf-8" standalone="no"?>
<!DOCTYPE svg PUBLIC "-//W3C//DTD SVG 1.1//EN"
  "http://www.w3.org/Graphics/SVG/1.1/DTD/svg11.dtd">
<svg xmlns:xlink="http://www.w3.org/1999/xlink" width="317.414931pt" height="181.425625pt" viewBox="0 0 317.414931 181.425625" xmlns="http://www.w3.org/2000/svg" version="1.1">
 <metadata>
  <rdf:RDF xmlns:dc="http://purl.org/dc/elements/1.1/" xmlns:cc="http://creativecommons.org/ns#" xmlns:rdf="http://www.w3.org/1999/02/22-rdf-syntax-ns#">
   <cc:Work>
    <dc:type rdf:resource="http://purl.org/dc/dcmitype/StillImage"/>
    <dc:date>2026-06-14T12:03:28.103367</dc:date>
    <dc:format>image/svg+xml</dc:format>
    <dc:creator>
     <cc:Agent>
      <dc:title>Matplotlib v3.9.0, https://matplotlib.org/</dc:title>
     </cc:Agent>
    </dc:creator>
   </cc:Work>
  </rdf:RDF>
 </metadata>
 <defs>
  <style type="text/css">*{stroke-linejoin: round; stroke-linecap: butt}</style>
 </defs>
 <g id="figure_1">
  <g id="patch_1">
   <path d="M 0 181.425625 
L 317.414931 181.425625 
L 317.414931 0 
L 0 0 
z
" style="fill: #ffffff"/>
  </g>
  <g id="axes_1">
   <g id="patch_2">
    <path d="M 44.421875 148.56 
L 272.993056 148.56 
L 272.993056 7.2 
L 44.421875 7.2 
z
" style="fill: #ffffff"/>
   </g>
   <g id="matplotlib.axis_1">
    <g id="xtick_1">
     <g id="line2d_1">
      <defs>
       <path id="m71eb4e3e95" d="M 0 0 
L 0 -3.5 
" style="stroke: #000000; stroke-width: 0.8"/>
      </defs>
      <g>
       <use xlink:href="#m71eb4e3e95" x="54.811474" y="148.56" style="stroke: #000000; stroke-width: 0.8"/>
      </g>
     </g>
     <g id="text_1">
      <!-- 0 -->
      <g transform="translate(52.311474 159.00375) scale(0.1 -0.1)">
       <defs>
        <path id="TimesNewRomanPSMT-30" d="M 231 2094 
Q 231 2819 450 3342 
Q 669 3866 1031 4122 
Q 1313 4325 1613 4325 
Q 2100 4325 2488 3828 
Q 2972 3213 2972 2159 
Q 2972 1422 2759 906 
Q 2547 391 2217 158 
Q 1888 -75 1581 -75 
Q 975 -75 572 641 
Q 231 1244 231 2094 
z
M 844 2016 
Q 844 1141 1059 588 
Q 1238 122 1591 122 
Q 1759 122 1940 273 
Q 2122 425 2216 781 
Q 2359 1319 2359 2297 
Q 2359 3022 2209 3506 
Q 2097 3866 1919 4016 
Q 1791 4119 1609 4119 
Q 1397 4119 1231 3928 
Q 1006 3669 925 3112 
Q 844 2556 844 2016 
z
" transform="scale(0.015625)"/>
       </defs>
       <use xlink:href="#TimesNewRomanPSMT-30"/>
      </g>
     </g>
    </g>
    <g id="xtick_2">
     <g id="line2d_2">
      <g>
       <use xlink:href="#m71eb4e3e95" x="96.369871" y="148.56" style="stroke: #000000; stroke-width: 0.8"/>
      </g>
     </g>
     <g id="text_2">
      <!-- 2 -->
      <g transform="translate(93.869871 159.00375) scale(0.1 -0.1)">
       <defs>
        <path id="TimesNewRomanPSMT-32" d="M 2934 816 
L 2638 0 
L 138 0 
L 138 116 
Q 1241 1122 1691 1759 
Q 2141 2397 2141 2925 
Q 2141 3328 1894 3587 
Q 1647 3847 1303 3847 
Q 991 3847 742 3664 
Q 494 3481 375 3128 
L 259 3128 
Q 338 3706 661 4015 
Q 984 4325 1469 4325 
Q 1984 4325 2329 3994 
Q 2675 3663 2675 3213 
Q 2675 2891 2525 2569 
Q 2294 2063 1775 1497 
Q 997 647 803 472 
L 1909 472 
Q 2247 472 2383 497 
Q 2519 522 2628 598 
Q 2738 675 2819 816 
L 2934 816 
z
" transform="scale(0.015625)"/>
       </defs>
       <use xlink:href="#TimesNewRomanPSMT-32"/>
      </g>
     </g>
    </g>
    <g id="xtick_3">
     <g id="line2d_3">
      <g>
       <use xlink:href="#m71eb4e3e95" x="137.928267" y="148.56" style="stroke: #000000; stroke-width: 0.8"/>
      </g>
     </g>
     <g id="text_3">
      <!-- 4 -->
      <g transform="translate(135.428267 159.00375) scale(0.1 -0.1)">
       <defs>
        <path id="TimesNewRomanPSMT-34" d="M 2978 1563 
L 2978 1119 
L 2409 1119 
L 2409 0 
L 1894 0 
L 1894 1119 
L 100 1119 
L 100 1519 
L 2066 4325 
L 2409 4325 
L 2409 1563 
L 2978 1563 
z
M 1894 1563 
L 1894 3666 
L 406 1563 
L 1894 1563 
z
" transform="scale(0.015625)"/>
       </defs>
       <use xlink:href="#TimesNewRomanPSMT-34"/>
      </g>
     </g>
    </g>
    <g id="xtick_4">
     <g id="line2d_4">
      <g>
       <use xlink:href="#m71eb4e3e95" x="179.486664" y="148.56" style="stroke: #000000; stroke-width: 0.8"/>
      </g>
     </g>
     <g id="text_4">
      <!-- 6 -->
      <g transform="translate(176.986664 159.00375) scale(0.1 -0.1)">
       <defs>
        <path id="TimesNewRomanPSMT-36" d="M 2869 4325 
L 2869 4209 
Q 2456 4169 2195 4045 
Q 1934 3922 1679 3669 
Q 1425 3416 1258 3105 
Q 1091 2794 978 2366 
Q 1428 2675 1881 2675 
Q 2316 2675 2634 2325 
Q 2953 1975 2953 1425 
Q 2953 894 2631 456 
Q 2244 -75 1606 -75 
Q 1172 -75 869 213 
Q 275 772 275 1663 
Q 275 2231 503 2743 
Q 731 3256 1154 3653 
Q 1578 4050 1965 4187 
Q 2353 4325 2688 4325 
L 2869 4325 
z
M 925 2138 
Q 869 1716 869 1456 
Q 869 1156 980 804 
Q 1091 453 1309 247 
Q 1469 100 1697 100 
Q 1969 100 2183 356 
Q 2397 613 2397 1088 
Q 2397 1622 2184 2012 
Q 1972 2403 1581 2403 
Q 1463 2403 1327 2353 
Q 1191 2303 925 2138 
z
" transform="scale(0.015625)"/>
       </defs>
       <use xlink:href="#TimesNewRomanPSMT-36"/>
      </g>
     </g>
    </g>
    <g id="xtick_5">
     <g id="line2d_5">
      <g>
       <use xlink:href="#m71eb4e3e95" x="221.04506" y="148.56" style="stroke: #000000; stroke-width: 0.8"/>
      </g>
     </g>
     <g id="text_5">
      <!-- 8 -->
      <g transform="translate(218.54506 159.00375) scale(0.1 -0.1)">
       <defs>
        <path id="TimesNewRomanPSMT-38" d="M 1228 2134 
Q 725 2547 579 2797 
Q 434 3047 434 3316 
Q 434 3728 753 4026 
Q 1072 4325 1600 4325 
Q 2113 4325 2425 4047 
Q 2738 3769 2738 3413 
Q 2738 3175 2569 2928 
Q 2400 2681 1866 2347 
Q 2416 1922 2594 1678 
Q 2831 1359 2831 1006 
Q 2831 559 2490 242 
Q 2150 -75 1597 -75 
Q 994 -75 656 303 
Q 388 606 388 966 
Q 388 1247 577 1523 
Q 766 1800 1228 2134 
z
M 1719 2469 
Q 2094 2806 2194 3001 
Q 2294 3197 2294 3444 
Q 2294 3772 2109 3958 
Q 1925 4144 1606 4144 
Q 1288 4144 1088 3959 
Q 888 3775 888 3528 
Q 888 3366 970 3203 
Q 1053 3041 1206 2894 
L 1719 2469 
z
M 1375 2016 
Q 1116 1797 991 1539 
Q 866 1281 866 981 
Q 866 578 1086 336 
Q 1306 94 1647 94 
Q 1984 94 2187 284 
Q 2391 475 2391 747 
Q 2391 972 2272 1150 
Q 2050 1481 1375 2016 
z
" transform="scale(0.015625)"/>
       </defs>
       <use xlink:href="#TimesNewRomanPSMT-38"/>
      </g>
     </g>
    </g>
    <g id="xtick_6">
     <g id="line2d_6">
      <g>
       <use xlink:href="#m71eb4e3e95" x="262.603457" y="148.56" style="stroke: #000000; stroke-width: 0.8"/>
      </g>
     </g>
     <g id="text_6">
      <!-- 10 -->
      <g transform="translate(257.603457 159.00375) scale(0.1 -0.1)">
       <defs>
        <path id="TimesNewRomanPSMT-31" d="M 750 3822 
L 1781 4325 
L 1884 4325 
L 1884 747 
Q 1884 391 1914 303 
Q 1944 216 2037 169 
Q 2131 122 2419 116 
L 2419 0 
L 825 0 
L 825 116 
Q 1125 122 1212 167 
Q 1300 213 1334 289 
Q 1369 366 1369 747 
L 1369 3034 
Q 1369 3497 1338 3628 
Q 1316 3728 1258 3775 
Q 1200 3822 1119 3822 
Q 1003 3822 797 3725 
L 750 3822 
z
" transform="scale(0.015625)"/>
       </defs>
       <use xlink:href="#TimesNewRomanPSMT-31"/>
       <use xlink:href="#TimesNewRomanPSMT-30" x="50"/>
      </g>
     </g>
    </g>
    <g id="text_7">
     <!-- Time (s) -->
     <g transform="translate(141.805122 172.086563) scale(0.1 -0.1)">
      <defs>
       <path id="TimesNewRomanPSMT-54" d="M 3703 4238 
L 3750 3244 
L 3631 3244 
Q 3597 3506 3538 3619 
Q 3441 3800 3280 3886 
Q 3119 3972 2856 3972 
L 2259 3972 
L 2259 734 
Q 2259 344 2344 247 
Q 2463 116 2709 116 
L 2856 116 
L 2856 0 
L 1059 0 
L 1059 116 
L 1209 116 
Q 1478 116 1591 278 
Q 1659 378 1659 734 
L 1659 3972 
L 1150 3972 
Q 853 3972 728 3928 
Q 566 3869 450 3700 
Q 334 3531 313 3244 
L 194 3244 
L 244 4238 
L 3703 4238 
z
" transform="scale(0.015625)"/>
       <path id="TimesNewRomanPSMT-69" d="M 928 4444 
Q 1059 4444 1151 4351 
Q 1244 4259 1244 4128 
Q 1244 3997 1151 3903 
Q 1059 3809 928 3809 
Q 797 3809 703 3903 
Q 609 3997 609 4128 
Q 609 4259 701 4351 
Q 794 4444 928 4444 
z
M 1188 2947 
L 1188 647 
Q 1188 378 1227 289 
Q 1266 200 1342 156 
Q 1419 113 1622 113 
L 1622 0 
L 231 0 
L 231 113 
Q 441 113 512 153 
Q 584 194 626 287 
Q 669 381 669 647 
L 669 1750 
Q 669 2216 641 2353 
Q 619 2453 572 2492 
Q 525 2531 444 2531 
Q 356 2531 231 2484 
L 188 2597 
L 1050 2947 
L 1188 2947 
z
" transform="scale(0.015625)"/>
       <path id="TimesNewRomanPSMT-6d" d="M 1050 2338 
Q 1363 2650 1419 2697 
Q 1559 2816 1721 2881 
Q 1884 2947 2044 2947 
Q 2313 2947 2506 2790 
Q 2700 2634 2766 2338 
Q 3088 2713 3309 2830 
Q 3531 2947 3766 2947 
Q 3994 2947 4170 2830 
Q 4347 2713 4450 2447 
Q 4519 2266 4519 1878 
L 4519 647 
Q 4519 378 4559 278 
Q 4591 209 4675 161 
Q 4759 113 4950 113 
L 4950 0 
L 3538 0 
L 3538 113 
L 3597 113 
Q 3781 113 3884 184 
Q 3956 234 3988 344 
Q 4000 397 4000 647 
L 4000 1878 
Q 4000 2228 3916 2372 
Q 3794 2572 3525 2572 
Q 3359 2572 3192 2489 
Q 3025 2406 2788 2181 
L 2781 2147 
L 2788 2013 
L 2788 647 
Q 2788 353 2820 281 
Q 2853 209 2943 161 
Q 3034 113 3253 113 
L 3253 0 
L 1806 0 
L 1806 113 
Q 2044 113 2133 169 
Q 2222 225 2256 338 
Q 2272 391 2272 647 
L 2272 1878 
Q 2272 2228 2169 2381 
Q 2031 2581 1784 2581 
Q 1616 2581 1450 2491 
Q 1191 2353 1050 2181 
L 1050 647 
Q 1050 366 1089 281 
Q 1128 197 1204 155 
Q 1281 113 1516 113 
L 1516 0 
L 100 0 
L 100 113 
Q 297 113 375 155 
Q 453 197 493 289 
Q 534 381 534 647 
L 534 1741 
Q 534 2213 506 2350 
Q 484 2453 437 2492 
Q 391 2531 309 2531 
Q 222 2531 100 2484 
L 53 2597 
L 916 2947 
L 1050 2947 
L 1050 2338 
z
" transform="scale(0.015625)"/>
       <path id="TimesNewRomanPSMT-65" d="M 681 1784 
Q 678 1147 991 784 
Q 1303 422 1725 422 
Q 2006 422 2214 576 
Q 2422 731 2563 1106 
L 2659 1044 
Q 2594 616 2278 264 
Q 1963 -88 1488 -88 
Q 972 -88 605 314 
Q 238 716 238 1394 
Q 238 2128 614 2539 
Q 991 2950 1559 2950 
Q 2041 2950 2350 2633 
Q 2659 2316 2659 1784 
L 681 1784 
z
M 681 1966 
L 2006 1966 
Q 1991 2241 1941 2353 
Q 1863 2528 1708 2628 
Q 1553 2728 1384 2728 
Q 1125 2728 920 2526 
Q 716 2325 681 1966 
z
" transform="scale(0.015625)"/>
       <path id="TimesNewRomanPSMT-20" transform="scale(0.015625)"/>
       <path id="TimesNewRomanPSMT-28" d="M 1988 -1253 
L 1988 -1369 
Q 1516 -1131 1200 -813 
Q 750 -359 506 256 
Q 263 872 263 1534 
Q 263 2503 741 3301 
Q 1219 4100 1988 4444 
L 1988 4313 
Q 1603 4100 1356 3731 
Q 1109 3363 987 2797 
Q 866 2231 866 1616 
Q 866 947 969 400 
Q 1050 -31 1165 -292 
Q 1281 -553 1476 -793 
Q 1672 -1034 1988 -1253 
z
" transform="scale(0.015625)"/>
       <path id="TimesNewRomanPSMT-73" d="M 2050 2947 
L 2050 1972 
L 1947 1972 
Q 1828 2431 1642 2597 
Q 1456 2763 1169 2763 
Q 950 2763 815 2647 
Q 681 2531 681 2391 
Q 681 2216 781 2091 
Q 878 1963 1175 1819 
L 1631 1597 
Q 2266 1288 2266 781 
Q 2266 391 1970 151 
Q 1675 -88 1309 -88 
Q 1047 -88 709 6 
Q 606 38 541 38 
Q 469 38 428 -44 
L 325 -44 
L 325 978 
L 428 978 
Q 516 541 762 319 
Q 1009 97 1316 97 
Q 1531 97 1667 223 
Q 1803 350 1803 528 
Q 1803 744 1651 891 
Q 1500 1038 1047 1263 
Q 594 1488 453 1669 
Q 313 1847 313 2119 
Q 313 2472 555 2709 
Q 797 2947 1181 2947 
Q 1350 2947 1591 2875 
Q 1750 2828 1803 2828 
Q 1853 2828 1881 2850 
Q 1909 2872 1947 2947 
L 2050 2947 
z
" transform="scale(0.015625)"/>
       <path id="TimesNewRomanPSMT-29" d="M 144 4313 
L 144 4444 
Q 619 4209 934 3891 
Q 1381 3434 1625 2820 
Q 1869 2206 1869 1541 
Q 1869 572 1392 -226 
Q 916 -1025 144 -1369 
L 144 -1253 
Q 528 -1038 776 -670 
Q 1025 -303 1145 264 
Q 1266 831 1266 1447 
Q 1266 2113 1163 2663 
Q 1084 3094 967 3353 
Q 850 3613 656 3853 
Q 463 4094 144 4313 
z
" transform="scale(0.015625)"/>
      </defs>
      <use xlink:href="#TimesNewRomanPSMT-54"/>
      <use xlink:href="#TimesNewRomanPSMT-69" x="57.583984"/>
      <use xlink:href="#TimesNewRomanPSMT-6d" x="85.367188"/>
      <use xlink:href="#TimesNewRomanPSMT-65" x="163.150391"/>
      <use xlink:href="#TimesNewRomanPSMT-20" x="207.535156"/>
      <use xlink:href="#TimesNewRomanPSMT-28" x="232.535156"/>
      <use xlink:href="#TimesNewRomanPSMT-73" x="265.835938"/>
      <use xlink:href="#TimesNewRomanPSMT-29" x="304.751953"/>
     </g>
    </g>
   </g>
   <g id="matplotlib.axis_2">
    <g id="ytick_1">
     <g id="line2d_7">
      <defs>
       <path id="m7b8e3a8991" d="M 0 0 
L 3.5 0 
" style="stroke: #000000; stroke-width: 0.8"/>
      </defs>
      <g>
       <use xlink:href="#m7b8e3a8991" x="44.421875" y="148.56" style="stroke: #000000; stroke-width: 0.8"/>
      </g>
     </g>
     <g id="text_8">
      <!-- −800 -->
      <g transform="translate(20.282813 152.031875) scale(0.1 -0.1)">
       <defs>
        <path id="TimesNewRomanPSMT-2212" d="M 3484 2000 
L 116 2000 
L 116 2256 
L 3484 2256 
L 3484 2000 
z
" transform="scale(0.015625)"/>
       </defs>
       <use xlink:href="#TimesNewRomanPSMT-2212"/>
       <use xlink:href="#TimesNewRomanPSMT-38" x="56.396484"/>
       <use xlink:href="#TimesNewRomanPSMT-30" x="106.396484"/>
       <use xlink:href="#TimesNewRomanPSMT-30" x="156.396484"/>
      </g>
     </g>
    </g>
    <g id="ytick_2">
     <g id="line2d_8">
      <g>
       <use xlink:href="#m7b8e3a8991" x="44.421875" y="117.146667" style="stroke: #000000; stroke-width: 0.8"/>
      </g>
     </g>
     <g id="text_9">
      <!-- −400 -->
      <g transform="translate(20.282813 120.618542) scale(0.1 -0.1)">
       <use xlink:href="#TimesNewRomanPSMT-2212"/>
       <use xlink:href="#TimesNewRomanPSMT-34" x="56.396484"/>
       <use xlink:href="#TimesNewRomanPSMT-30" x="106.396484"/>
       <use xlink:href="#TimesNewRomanPSMT-30" x="156.396484"/>
      </g>
     </g>
    </g>
    <g id="ytick_3">
     <g id="line2d_9">
      <g>
       <use xlink:href="#m7b8e3a8991" x="44.421875" y="85.733333" style="stroke: #000000; stroke-width: 0.8"/>
      </g>
     </g>
     <g id="text_10">
      <!-- 0 -->
      <g transform="translate(35.921875 89.205208) scale(0.1 -0.1)">
       <use xlink:href="#TimesNewRomanPSMT-30"/>
      </g>
     </g>
    </g>
    <g id="ytick_4">
     <g id="line2d_10">
      <g>
       <use xlink:href="#m7b8e3a8991" x="44.421875" y="54.32" style="stroke: #000000; stroke-width: 0.8"/>
      </g>
     </g>
     <g id="text_11">
      <!-- 400 -->
      <g transform="translate(25.921875 57.791875) scale(0.1 -0.1)">
       <use xlink:href="#TimesNewRomanPSMT-34"/>
       <use xlink:href="#TimesNewRomanPSMT-30" x="50"/>
       <use xlink:href="#TimesNewRomanPSMT-30" x="100"/>
      </g>
     </g>
    </g>
    <g id="ytick_5">
     <g id="line2d_11">
      <g>
       <use xlink:href="#m7b8e3a8991" x="44.421875" y="22.906667" style="stroke: #000000; stroke-width: 0.8"/>
      </g>
     </g>
     <g id="text_12">
      <!-- 800 -->
      <g transform="translate(25.921875 26.378542) scale(0.1 -0.1)">
       <use xlink:href="#TimesNewRomanPSMT-38"/>
       <use xlink:href="#TimesNewRomanPSMT-30" x="50"/>
       <use xlink:href="#TimesNewRomanPSMT-30" x="100"/>
      </g>
     </g>
    </g>
    <g id="text_13">
     <!-- Force (N) -->
     <g transform="translate(14.14375 97.455) rotate(-90) scale(0.1 -0.1)">
      <defs>
       <path id="TimesNewRomanPSMT-46" d="M 1309 4006 
L 1309 2341 
L 2081 2341 
Q 2347 2341 2470 2458 
Q 2594 2575 2634 2922 
L 2750 2922 
L 2750 1488 
L 2634 1488 
Q 2631 1734 2570 1850 
Q 2509 1966 2401 2023 
Q 2294 2081 2081 2081 
L 1309 2081 
L 1309 750 
Q 1309 428 1350 325 
Q 1381 247 1481 191 
Q 1619 116 1769 116 
L 1922 116 
L 1922 0 
L 103 0 
L 103 116 
L 253 116 
Q 516 116 634 269 
Q 709 369 709 750 
L 709 3488 
Q 709 3809 669 3913 
Q 638 3991 541 4047 
Q 406 4122 253 4122 
L 103 4122 
L 103 4238 
L 3256 4238 
L 3297 3306 
L 3188 3306 
Q 3106 3603 2998 3742 
Q 2891 3881 2733 3943 
Q 2575 4006 2244 4006 
L 1309 4006 
z
" transform="scale(0.015625)"/>
       <path id="TimesNewRomanPSMT-6f" d="M 1600 2947 
Q 2250 2947 2644 2453 
Q 2978 2031 2978 1484 
Q 2978 1100 2793 706 
Q 2609 313 2286 112 
Q 1963 -88 1566 -88 
Q 919 -88 538 428 
Q 216 863 216 1403 
Q 216 1797 411 2186 
Q 606 2575 925 2761 
Q 1244 2947 1600 2947 
z
M 1503 2744 
Q 1338 2744 1170 2645 
Q 1003 2547 900 2300 
Q 797 2053 797 1666 
Q 797 1041 1045 587 
Q 1294 134 1700 134 
Q 2003 134 2200 384 
Q 2397 634 2397 1244 
Q 2397 2006 2069 2444 
Q 1847 2744 1503 2744 
z
" transform="scale(0.015625)"/>
       <path id="TimesNewRomanPSMT-72" d="M 1038 2947 
L 1038 2303 
Q 1397 2947 1775 2947 
Q 1947 2947 2059 2842 
Q 2172 2738 2172 2600 
Q 2172 2478 2090 2393 
Q 2009 2309 1897 2309 
Q 1788 2309 1652 2417 
Q 1516 2525 1450 2525 
Q 1394 2525 1328 2463 
Q 1188 2334 1038 2041 
L 1038 669 
Q 1038 431 1097 309 
Q 1138 225 1241 169 
Q 1344 113 1538 113 
L 1538 0 
L 72 0 
L 72 113 
Q 291 113 397 181 
Q 475 231 506 341 
Q 522 394 522 644 
L 522 1753 
Q 522 2253 501 2348 
Q 481 2444 426 2487 
Q 372 2531 291 2531 
Q 194 2531 72 2484 
L 41 2597 
L 906 2947 
L 1038 2947 
z
" transform="scale(0.015625)"/>
       <path id="TimesNewRomanPSMT-63" d="M 2631 1088 
Q 2516 522 2178 217 
Q 1841 -88 1431 -88 
Q 944 -88 581 321 
Q 219 731 219 1428 
Q 219 2103 620 2525 
Q 1022 2947 1584 2947 
Q 2006 2947 2278 2723 
Q 2550 2500 2550 2259 
Q 2550 2141 2473 2067 
Q 2397 1994 2259 1994 
Q 2075 1994 1981 2113 
Q 1928 2178 1911 2362 
Q 1894 2547 1784 2644 
Q 1675 2738 1481 2738 
Q 1169 2738 978 2506 
Q 725 2200 725 1697 
Q 725 1184 976 792 
Q 1228 400 1656 400 
Q 1963 400 2206 609 
Q 2378 753 2541 1131 
L 2631 1088 
z
" transform="scale(0.015625)"/>
       <path id="TimesNewRomanPSMT-4e" d="M -84 4238 
L 1066 4238 
L 3656 1059 
L 3656 3503 
Q 3656 3894 3569 3991 
Q 3453 4122 3203 4122 
L 3056 4122 
L 3056 4238 
L 4531 4238 
L 4531 4122 
L 4381 4122 
Q 4113 4122 4000 3959 
Q 3931 3859 3931 3503 
L 3931 -69 
L 3819 -69 
L 1025 3344 
L 1025 734 
Q 1025 344 1109 247 
Q 1228 116 1475 116 
L 1625 116 
L 1625 0 
L 150 0 
L 150 116 
L 297 116 
Q 569 116 681 278 
Q 750 378 750 734 
L 750 3681 
Q 566 3897 470 3965 
Q 375 4034 191 4094 
Q 100 4122 -84 4122 
L -84 4238 
z
" transform="scale(0.015625)"/>
      </defs>
      <use xlink:href="#TimesNewRomanPSMT-46"/>
      <use xlink:href="#TimesNewRomanPSMT-6f" x="55.615234"/>
      <use xlink:href="#TimesNewRomanPSMT-72" x="105.615234"/>
      <use xlink:href="#TimesNewRomanPSMT-63" x="138.916016"/>
      <use xlink:href="#TimesNewRomanPSMT-65" x="183.300781"/>
      <use xlink:href="#TimesNewRomanPSMT-20" x="227.685547"/>
      <use xlink:href="#TimesNewRomanPSMT-28" x="252.685547"/>
      <use xlink:href="#TimesNewRomanPSMT-4e" x="285.986328"/>
      <use xlink:href="#TimesNewRomanPSMT-29" x="358.203125"/>
     </g>
    </g>
   </g>
   <g id="line2d_12">
    <path d="M 54.811474 50.383541 
L 55.850434 52.209895 
L 56.369914 52.823229 
L 56.889394 53.252352 
L 57.928354 53.679245 
L 60.006274 54.025777 
L 60.525754 54.265228 
L 61.045234 54.632389 
L 62.084194 55.799715 
L 63.123153 57.504286 
L 66.240033 63.330977 
L 67.278993 64.493432 
L 67.798473 64.829476 
L 68.317953 65.012395 
L 69.356913 65.034431 
L 70.395873 64.912874 
L 70.915353 64.949312 
L 71.434833 65.139461 
L 71.954313 65.548471 
L 72.473793 66.235488 
L 72.993273 67.249909 
L 73.512753 68.628114 
L 74.551713 72.54166 
L 75.590672 77.930728 
L 77.149112 88.010503 
L 79.227032 102.020475 
L 80.265992 107.833008 
L 81.304952 112.246407 
L 81.824432 113.873127 
L 82.343912 115.118839 
L 82.863392 116.008531 
L 83.382872 116.581463 
L 83.902352 116.888303 
L 84.421832 116.987676 
L 85.460792 116.815338 
L 86.499752 116.546701 
L 87.538711 116.555618 
L 88.058191 116.731024 
L 89.097151 117.439991 
L 90.655591 119.086022 
L 91.694551 120.151493 
L 92.733511 120.827934 
L 93.252991 120.948876 
L 93.772471 120.906843 
L 94.291951 120.703467 
L 95.330911 119.88212 
L 97.928311 117.237566 
L 98.447791 116.997915 
L 98.96727 116.955614 
L 99.48675 117.13541 
L 100.00623 117.547963 
L 100.52571 118.188373 
L 101.56467 120.053003 
L 104.16207 125.55771 
L 104.68155 126.225744 
L 105.20103 126.58029 
L 105.72051 126.564619 
L 106.23999 126.136227 
L 106.75947 125.269267 
L 107.27895 123.956073 
L 107.79843 122.207672 
L 108.83739 117.538711 
L 110.39583 108.485944 
L 112.473749 95.786837 
L 113.512709 90.414116 
L 114.551669 86.103992 
L 115.590629 82.85838 
L 116.629589 80.459191 
L 118.188029 77.655673 
L 119.746469 74.734127 
L 121.304909 71.075914 
L 123.902308 64.495178 
L 124.941268 62.564734 
L 125.460748 61.883256 
L 125.980228 61.409084 
L 126.499708 61.139541 
L 127.019188 61.058061 
L 127.538668 61.134555 
L 128.577628 61.582091 
L 129.616588 62.040535 
L 130.136068 62.117032 
L 130.655548 62.011417 
L 131.175028 61.672302 
L 131.694508 61.059578 
L 132.213988 60.147279 
L 132.733468 58.925683 
L 133.772428 55.603058 
L 134.811388 51.35898 
L 136.889307 42.245805 
L 137.928267 38.664061 
L 138.447747 37.37099 
L 138.967227 36.476866 
L 139.486707 36.011697 
L 140.006187 35.987545 
L 140.525667 36.398287 
L 141.045147 37.220384 
L 141.564627 38.414624 
L 142.603587 41.700528 
L 144.162027 47.874268 
L 145.720467 53.995827 
L 146.759427 57.465947 
L 147.798386 60.343374 
L 149.356826 63.900325 
L 150.915266 67.427477 
L 151.954226 70.216301 
L 153.512666 75.276744 
L 156.110066 84.376733 
L 157.149026 87.202416 
L 157.668506 88.274688 
L 158.187986 89.091787 
L 158.707466 89.650208 
L 159.226946 89.961902 
L 159.746425 90.054322 
L 160.265905 89.9695 
L 162.343825 89.082445 
L 162.863305 89.079807 
L 163.382785 89.305292 
L 163.902265 89.816858 
L 164.421745 90.659627 
L 164.941225 91.863124 
L 165.460705 93.439374 
L 166.499665 97.666125 
L 167.538625 103.076012 
L 170.655505 120.863064 
L 171.694464 125.304588 
L 172.733424 128.334754 
L 173.252904 129.297648 
L 173.772384 129.912512 
L 174.291864 130.211989 
L 174.811344 130.239669 
L 175.330824 130.046806 
L 176.369784 129.220795 
L 178.447704 127.178809 
L 179.486664 126.429541 
L 182.084064 124.832951 
L 183.123024 123.602411 
L 184.161983 121.651191 
L 185.200943 118.906409 
L 186.759383 113.643692 
L 188.317823 108.134372 
L 189.356783 105.114481 
L 189.876263 103.959047 
L 190.395743 103.087176 
L 190.915223 102.516134 
L 191.434703 102.246591 
L 191.954183 102.261982 
L 192.473663 102.528868 
L 193.512623 103.608118 
L 195.071063 105.528989 
L 195.590543 105.934125 
L 196.110022 106.096002 
L 196.629502 105.952047 
L 197.148982 105.45316 
L 197.668462 104.566288 
L 198.187942 103.276111 
L 198.707422 101.585714 
L 199.746382 97.105548 
L 200.785342 91.481006 
L 203.902222 73.241559 
L 204.941182 68.358401 
L 205.980142 64.472021 
L 207.019102 61.489571 
L 208.058061 59.149835 
L 211.694421 51.764391 
L 213.772341 47.296259 
L 214.811301 45.721005 
L 215.330781 45.251638 
L 215.850261 45.040599 
L 216.369741 45.109618 
L 216.889221 45.467302 
L 217.408701 46.107711 
L 217.928181 47.009828 
L 218.967141 49.443264 
L 221.56454 56.327553 
L 222.08402 57.289796 
L 222.6035 57.975924 
L 223.12298 58.350222 
L 223.64246 58.393573 
L 224.16194 58.104813 
L 224.68142 57.501077 
L 225.2009 56.617115 
L 226.23986 54.224617 
L 228.31778 49.001189 
L 228.83726 48.064437 
L 229.35674 47.414213 
L 229.87622 47.100057 
L 230.3957 47.155866 
L 230.91518 47.598536 
L 231.43466 48.427595 
L 231.954139 49.625841 
L 232.993099 52.987838 
L 234.032059 57.292433 
L 237.148939 71.220681 
L 238.707379 76.947781 
L 242.343739 89.079456 
L 243.902179 95.517123 
L 246.499578 106.990885 
L 247.538538 110.692129 
L 248.577498 113.261272 
L 249.096978 114.041293 
L 249.616458 114.47094 
L 250.135938 114.560257 
L 250.655418 114.336041 
L 251.174898 113.840939 
L 252.213858 112.275861 
L 253.772298 109.603034 
L 254.291778 108.936893 
L 254.811258 108.499774 
L 255.330738 108.345523 
L 255.850218 108.512856 
L 256.369697 109.023286 
L 256.889177 109.88001 
L 257.408657 111.067825 
L 258.447617 114.290559 
L 260.525537 122.402757 
L 261.564497 126.119116 
L 262.603457 128.916874 
L 262.603457 128.916874 
" clip-path="url(#pf8846fd576)" style="fill: none; stroke: #1f77b4; stroke-linecap: square"/>
   </g>
   <g id="patch_3">
    <path d="M 44.421875 148.56 
L 44.421875 7.2 
" style="fill: none; stroke: #000000; stroke-width: 0.8; stroke-linejoin: miter; stroke-linecap: square"/>
   </g>
   <g id="patch_4">
    <path d="M 272.993056 148.56 
L 272.993056 7.2 
" style="fill: none; stroke: #000000; stroke-width: 0.8; stroke-linejoin: miter; stroke-linecap: square"/>
   </g>
   <g id="patch_5">
    <path d="M 44.421875 148.56 
L 272.993056 148.56 
" style="fill: none; stroke: #000000; stroke-width: 0.8; stroke-linejoin: miter; stroke-linecap: square"/>
   </g>
   <g id="patch_6">
    <path d="M 44.421875 7.2 
L 272.993056 7.2 
" style="fill: none; stroke: #000000; stroke-width: 0.8; stroke-linejoin: miter; stroke-linecap: square"/>
   </g>
   <g id="legend_1">
    <g id="line2d_13">
     <path d="M 209.194306 18.45 
L 218.194306 18.45 
L 227.194306 18.45 
" style="fill: none; stroke: #1f77b4; stroke-linecap: square"/>
    </g>
    <g id="text_14">
     <!-- Force -->
     <g transform="translate(234.394306 21.6) scale(0.09 -0.09)">
      <use xlink:href="#TimesNewRomanPSMT-46"/>
      <use xlink:href="#TimesNewRomanPSMT-6f" x="55.615234"/>
      <use xlink:href="#TimesNewRomanPSMT-72" x="105.615234"/>
      <use xlink:href="#TimesNewRomanPSMT-63" x="138.916016"/>
      <use xlink:href="#TimesNewRomanPSMT-65" x="183.300781"/>
     </g>
    </g>
    <g id="line2d_14">
     <path d="M 209.194306 31.175156 
L 218.194306 31.175156 
L 227.194306 31.175156 
" style="fill: none; stroke-dasharray: 3.7,1.6; stroke-dashoffset: 0; stroke: #d62728"/>
    </g>
    <g id="text_15">
     <!-- Moment -->
     <g transform="translate(234.394306 34.325156) scale(0.09 -0.09)">
      <defs>
       <path id="TimesNewRomanPSMT-4d" d="M 2619 0 
L 981 3566 
L 981 734 
Q 981 344 1066 247 
Q 1181 116 1431 116 
L 1581 116 
L 1581 0 
L 106 0 
L 106 116 
L 256 116 
Q 525 116 638 278 
Q 706 378 706 734 
L 706 3503 
Q 706 3784 644 3909 
Q 600 4000 483 4061 
Q 366 4122 106 4122 
L 106 4238 
L 1306 4238 
L 2844 922 
L 4356 4238 
L 5556 4238 
L 5556 4122 
L 5409 4122 
Q 5138 4122 5025 3959 
Q 4956 3859 4956 3503 
L 4956 734 
Q 4956 344 5044 247 
Q 5159 116 5409 116 
L 5556 116 
L 5556 0 
L 3756 0 
L 3756 116 
L 3906 116 
Q 4178 116 4288 278 
Q 4356 378 4356 734 
L 4356 3566 
L 2722 0 
L 2619 0 
z
" transform="scale(0.015625)"/>
       <path id="TimesNewRomanPSMT-6e" d="M 1034 2341 
Q 1538 2947 1994 2947 
Q 2228 2947 2397 2830 
Q 2566 2713 2666 2444 
Q 2734 2256 2734 1869 
L 2734 647 
Q 2734 375 2778 278 
Q 2813 200 2889 156 
Q 2966 113 3172 113 
L 3172 0 
L 1756 0 
L 1756 113 
L 1816 113 
Q 2016 113 2095 173 
Q 2175 234 2206 353 
Q 2219 400 2219 647 
L 2219 1819 
Q 2219 2209 2117 2386 
Q 2016 2563 1775 2563 
Q 1403 2563 1034 2156 
L 1034 647 
Q 1034 356 1069 288 
Q 1113 197 1189 155 
Q 1266 113 1500 113 
L 1500 0 
L 84 0 
L 84 113 
L 147 113 
Q 366 113 442 223 
Q 519 334 519 647 
L 519 1709 
Q 519 2225 495 2337 
Q 472 2450 423 2490 
Q 375 2531 294 2531 
Q 206 2531 84 2484 
L 38 2597 
L 900 2947 
L 1034 2947 
L 1034 2341 
z
" transform="scale(0.015625)"/>
       <path id="TimesNewRomanPSMT-74" d="M 1031 3803 
L 1031 2863 
L 1700 2863 
L 1700 2644 
L 1031 2644 
L 1031 788 
Q 1031 509 1111 412 
Q 1191 316 1316 316 
Q 1419 316 1516 380 
Q 1613 444 1666 569 
L 1788 569 
Q 1678 263 1478 108 
Q 1278 -47 1066 -47 
Q 922 -47 784 33 
Q 647 113 581 261 
Q 516 409 516 719 
L 516 2644 
L 63 2644 
L 63 2747 
Q 234 2816 414 2980 
Q 594 3144 734 3369 
Q 806 3488 934 3803 
L 1031 3803 
z
" transform="scale(0.015625)"/>
      </defs>
      <use xlink:href="#TimesNewRomanPSMT-4d"/>
      <use xlink:href="#TimesNewRomanPSMT-6f" x="88.916016"/>
      <use xlink:href="#TimesNewRomanPSMT-6d" x="138.916016"/>
      <use xlink:href="#TimesNewRomanPSMT-65" x="216.699219"/>
      <use xlink:href="#TimesNewRomanPSMT-6e" x="261.083984"/>
      <use xlink:href="#TimesNewRomanPSMT-74" x="311.083984"/>
     </g>
    </g>
   </g>
  </g>
  <g id="axes_2">
   <g id="matplotlib.axis_3">
    <g id="ytick_6">
     <g id="line2d_15">
      <defs>
       <path id="mf5fe9b9108" d="M 0 0 
L -3.5 0 
" style="stroke: #000000; stroke-width: 0.8"/>
      </defs>
      <g>
       <use xlink:href="#mf5fe9b9108" x="272.993056" y="148.56" style="stroke: #000000; stroke-width: 0.8"/>
      </g>
     </g>
     <g id="text_16">
      <!-- −120 -->
      <g transform="translate(276.493056 152.031875) scale(0.1 -0.1)">
       <use xlink:href="#TimesNewRomanPSMT-2212"/>
       <use xlink:href="#TimesNewRomanPSMT-31" x="56.396484"/>
       <use xlink:href="#TimesNewRomanPSMT-32" x="106.396484"/>
       <use xlink:href="#TimesNewRomanPSMT-30" x="156.396484"/>
      </g>
     </g>
    </g>
    <g id="ytick_7">
     <g id="line2d_16">
      <g>
       <use xlink:href="#mf5fe9b9108" x="272.993056" y="118.268571" style="stroke: #000000; stroke-width: 0.8"/>
      </g>
     </g>
     <g id="text_17">
      <!-- −60 -->
      <g transform="translate(276.493056 121.740446) scale(0.1 -0.1)">
       <use xlink:href="#TimesNewRomanPSMT-2212"/>
       <use xlink:href="#TimesNewRomanPSMT-36" x="56.396484"/>
       <use xlink:href="#TimesNewRomanPSMT-30" x="106.396484"/>
      </g>
     </g>
    </g>
    <g id="ytick_8">
     <g id="line2d_17">
      <g>
       <use xlink:href="#mf5fe9b9108" x="272.993056" y="87.977143" style="stroke: #000000; stroke-width: 0.8"/>
      </g>
     </g>
     <g id="text_18">
      <!-- 0 -->
      <g transform="translate(276.493056 91.449018) scale(0.1 -0.1)">
       <use xlink:href="#TimesNewRomanPSMT-30"/>
      </g>
     </g>
    </g>
    <g id="ytick_9">
     <g id="line2d_18">
      <g>
       <use xlink:href="#mf5fe9b9108" x="272.993056" y="57.685714" style="stroke: #000000; stroke-width: 0.8"/>
      </g>
     </g>
     <g id="text_19">
      <!-- 60 -->
      <g transform="translate(276.493056 61.157589) scale(0.1 -0.1)">
       <use xlink:href="#TimesNewRomanPSMT-36"/>
       <use xlink:href="#TimesNewRomanPSMT-30" x="50"/>
      </g>
     </g>
    </g>
    <g id="ytick_10">
     <g id="line2d_19">
      <g>
       <use xlink:href="#mf5fe9b9108" x="272.993056" y="27.394286" style="stroke: #000000; stroke-width: 0.8"/>
      </g>
     </g>
     <g id="text_20">
      <!-- 120 -->
      <g transform="translate(276.493056 30.866161) scale(0.1 -0.1)">
       <use xlink:href="#TimesNewRomanPSMT-31"/>
       <use xlink:href="#TimesNewRomanPSMT-32" x="50"/>
       <use xlink:href="#TimesNewRomanPSMT-30" x="100"/>
      </g>
     </g>
    </g>
    <g id="text_21">
     <!-- Moment (N·m) -->
     <g transform="translate(308.075869 108.568281) rotate(-90) scale(0.1 -0.1)">
      <defs>
       <path id="TimesNewRomanPSMT-b7" d="M 1066 2525 
Q 1203 2525 1298 2429 
Q 1394 2334 1394 2197 
Q 1394 2063 1297 1966 
Q 1200 1869 1066 1869 
Q 931 1869 834 1966 
Q 738 2063 738 2197 
Q 738 2334 833 2429 
Q 928 2525 1066 2525 
z
" transform="scale(0.015625)"/>
      </defs>
      <use xlink:href="#TimesNewRomanPSMT-4d"/>
      <use xlink:href="#TimesNewRomanPSMT-6f" x="88.916016"/>
      <use xlink:href="#TimesNewRomanPSMT-6d" x="138.916016"/>
      <use xlink:href="#TimesNewRomanPSMT-65" x="216.699219"/>
      <use xlink:href="#TimesNewRomanPSMT-6e" x="261.083984"/>
      <use xlink:href="#TimesNewRomanPSMT-74" x="311.083984"/>
      <use xlink:href="#TimesNewRomanPSMT-20" x="338.867188"/>
      <use xlink:href="#TimesNewRomanPSMT-28" x="363.867188"/>
      <use xlink:href="#TimesNewRomanPSMT-4e" x="397.167969"/>
      <use xlink:href="#TimesNewRomanPSMT-b7" x="469.384766"/>
      <use xlink:href="#TimesNewRomanPSMT-6d" x="502.685547"/>
      <use xlink:href="#TimesNewRomanPSMT-29" x="580.46875"/>
     </g>
    </g>
   </g>
   <g id="line2d_20">
    <path d="M 54.811474 62.709106 
L 55.330954 63.994505 
L 55.850434 64.926272 
L 56.369914 65.414609 
L 56.889394 65.395123 
L 57.408874 64.834996 
L 57.928354 63.737036 
L 58.447834 62.141231 
L 59.486794 57.792598 
L 61.564714 48.234858 
L 62.084194 46.565431 
L 62.603673 45.460287 
L 63.123153 45.014069 
L 63.642633 45.285344 
L 64.162113 46.293013 
L 64.681593 48.015441 
L 65.201073 50.39238 
L 66.240033 56.705158 
L 69.356913 78.212055 
L 70.395873 83.096317 
L 70.915353 84.87702 
L 71.434833 86.250306 
L 71.954313 87.273636 
L 72.993273 88.583626 
L 74.551713 89.98548 
L 75.590672 91.319246 
L 76.629632 93.182063 
L 78.707552 97.401274 
L 79.746512 98.836119 
L 80.265992 99.225941 
L 80.785472 99.384809 
L 81.304952 99.334535 
L 82.343912 98.819244 
L 83.382872 98.309569 
L 83.902352 98.311617 
L 84.421832 98.623145 
L 84.941312 99.334226 
L 85.460792 100.514182 
L 85.980272 102.204688 
L 86.499752 104.414712 
L 87.538711 110.251543 
L 90.655591 131.214578 
L 91.175071 133.682866 
L 91.694551 135.508527 
L 92.214031 136.618433 
L 92.733511 136.97805 
L 93.252991 136.593584 
L 93.772471 135.511337 
L 94.291951 133.814336 
L 95.330911 129.054629 
L 97.408831 118.17182 
L 98.447791 114.180715 
L 98.96727 112.838862 
L 99.48675 111.957905 
L 100.00623 111.515082 
L 100.52571 111.458578 
L 101.04519 111.713465 
L 102.08415 112.787564 
L 103.12311 113.97401 
L 103.64259 114.401993 
L 104.16207 114.644587 
L 104.68155 114.674546 
L 105.20103 114.489336 
L 105.72051 114.109584 
L 106.75947 112.941117 
L 108.31791 111.046471 
L 109.35687 110.277328 
L 110.39583 110.0318 
L 111.434789 110.005577 
L 111.954269 109.888731 
L 112.473749 109.577919 
L 112.993229 108.976346 
L 113.512709 107.994718 
L 114.032189 106.559533 
L 114.551669 104.620508 
L 115.590629 99.179473 
L 116.629589 91.905859 
L 119.226989 71.466101 
L 120.265949 65.423936 
L 120.785429 63.346338 
L 121.304909 61.975169 
L 121.824389 61.319304 
L 122.343869 61.34693 
L 122.863349 61.987693 
L 123.382828 63.137466 
L 124.421788 66.422813 
L 125.980228 71.526703 
L 126.499708 72.707443 
L 127.019188 73.451354 
L 127.538668 73.699238 
L 128.058148 73.427605 
L 128.577628 72.648447 
L 129.097108 71.406461 
L 130.136068 67.844073 
L 132.733468 57.393247 
L 133.772428 54.37813 
L 134.811388 52.389058 
L 135.850347 51.168753 
L 137.928267 49.24468 
L 138.967227 47.914643 
L 140.525667 45.764857 
L 141.045147 45.267718 
L 141.564627 45.024416 
L 142.084107 45.122622 
L 142.603587 45.639447 
L 143.123067 46.633673 
L 143.642547 48.139112 
L 144.162027 50.159676 
L 145.200987 55.598186 
L 146.759427 65.893054 
L 147.798386 72.634656 
L 148.837346 77.948709 
L 149.356826 79.786672 
L 149.876306 80.986701 
L 150.395786 81.526865 
L 150.915266 81.425651 
L 151.434746 80.741092 
L 151.954226 79.567185 
L 152.993186 76.268589 
L 154.032146 72.723869 
L 154.551626 71.249295 
L 155.071106 70.156822 
L 155.590586 69.553378 
L 156.110066 69.513486 
L 156.629546 70.075503 
L 157.149026 71.240506 
L 157.668506 72.973851 
L 158.707466 77.85482 
L 160.785385 90.268459 
L 161.824345 96.07082 
L 162.863305 100.870599 
L 163.902265 104.615631 
L 165.460705 108.96307 
L 167.019145 113.153232 
L 170.655505 123.601879 
L 171.174985 124.385111 
L 171.694464 124.769987 
L 172.213944 124.710987 
L 172.733424 124.188598 
L 173.252904 123.213235 
L 173.772384 121.826879 
L 174.811344 118.139421 
L 176.369784 112.102808 
L 176.889264 110.502753 
L 177.408744 109.323665 
L 177.928224 108.665319 
L 178.447704 108.596838 
L 178.967184 109.151124 
L 179.486664 110.321726 
L 180.006144 112.062411 
L 181.045104 116.886853 
L 183.123024 127.968175 
L 183.642503 130.124104 
L 184.161983 131.761666 
L 184.681463 132.790195 
L 185.200943 133.154829 
L 185.720423 132.838951 
L 186.239903 131.863926 
L 186.759383 130.286175 
L 187.798343 125.689792 
L 191.434703 106.593229 
L 192.473663 102.93668 
L 193.512623 100.151388 
L 196.110022 93.893709 
L 197.668462 89.08779 
L 199.226902 84.219095 
L 200.265862 81.864298 
L 200.785342 81.152667 
L 201.304822 80.802334 
L 201.824302 80.819598 
L 202.343782 81.181428 
L 202.863262 81.834904 
L 205.460662 85.960855 
L 205.980142 86.090143 
L 206.499622 85.716225 
L 207.019102 84.76275 
L 207.538582 83.186661 
L 208.058061 80.982454 
L 209.097021 74.862889 
L 210.655461 62.962809 
L 212.213901 51.409156 
L 213.252861 45.903484 
L 213.772341 44.119862 
L 214.291821 43.039292 
L 214.811301 42.655507 
L 215.330781 42.924568 
L 215.850261 43.769136 
L 216.369741 45.084943 
L 217.408701 48.62861 
L 218.967141 54.289198 
L 220.0061 57.097788 
L 220.52558 58.051063 
L 221.04506 58.699628 
L 221.56454 59.074106 
L 222.08402 59.226517 
L 223.12298 59.140189 
L 224.16194 59.018284 
L 224.68142 59.097743 
L 225.2009 59.32054 
L 225.72038 59.696956 
L 226.75934 60.838408 
L 228.31778 62.775726 
L 228.83726 63.216962 
L 229.35674 63.451292 
L 229.87622 63.436377 
L 230.3957 63.152164 
L 230.91518 62.604957 
L 231.954139 60.887696 
L 233.512579 58.032463 
L 234.032059 57.462324 
L 234.551539 57.284955 
L 235.071019 57.606134 
L 235.590499 58.509121 
L 236.109979 60.047442 
L 236.629459 62.239601 
L 237.668419 68.469498 
L 238.707379 76.602202 
L 240.785299 94.072735 
L 241.824259 100.9222 
L 242.343739 103.452998 
L 242.863219 105.310891 
L 243.382699 106.487418 
L 243.902179 107.01356 
L 244.421658 106.956616 
L 244.941138 106.41463 
L 245.460618 105.508822 
L 247.538538 100.966261 
L 248.058018 100.222886 
L 248.577498 99.817212 
L 249.096978 99.790342 
L 249.616458 100.151927 
L 250.135938 100.881806 
L 250.655418 101.933928 
L 251.694378 104.727416 
L 253.772298 110.843876 
L 254.811258 113.22518 
L 255.850218 115.042739 
L 257.408657 117.46223 
L 258.447617 119.564325 
L 259.486577 122.446618 
L 261.045017 128.030709 
L 262.083977 131.803 
L 262.603457 133.389106 
L 262.603457 133.389106 
" clip-path="url(#pf8846fd576)" style="fill: none; stroke-dasharray: 3.7,1.6; stroke-dashoffset: 0; stroke: #d62728"/>
   </g>
   <g id="patch_7">
    <path d="M 44.421875 148.56 
L 44.421875 7.2 
" style="fill: none; stroke: #000000; stroke-width: 0.8; stroke-linejoin: miter; stroke-linecap: square"/>
   </g>
   <g id="patch_8">
    <path d="M 272.993056 148.56 
L 272.993056 7.2 
" style="fill: none; stroke: #000000; stroke-width: 0.8; stroke-linejoin: miter; stroke-linecap: square"/>
   </g>
   <g id="patch_9">
    <path d="M 44.421875 148.56 
L 272.993056 148.56 
" style="fill: none; stroke: #000000; stroke-width: 0.8; stroke-linejoin: miter; stroke-linecap: square"/>
   </g>
   <g id="patch_10">
    <path d="M 44.421875 7.2 
L 272.993056 7.2 
" style="fill: none; stroke: #000000; stroke-width: 0.8; stroke-linejoin: miter; stroke-linecap: square"/>
   </g>
  </g>
 </g>
 <defs>
  <clipPath id="pf8846fd576">
   <rect x="44.421875" y="7.2" width="228.571181" height="141.36"/>
  </clipPath>
 </defs>
</svg>
