<?xml version="1.0" encoding="utf-8" standalone="no"?>
<!DOCTYPE svg PUBLIC "-//W3C//DTD SVG 1.1//EN"
  "http://www.w3.org/Graphics/SVG/1.1/DTD/svg11.dtd">
<svg xmlns:xlink="http://www.w3.org/1999/xlink" width="410.478539pt" height="299.249375pt" viewBox="0 0 410.478539 299.249375" xmlns="http://www.w3.org/2000/svg" version="1.1">
 <metadata>
  <rdf:RDF xmlns:dc="http://purl.org/dc/elements/1.1/" xmlns:cc="http://creativecommons.org/ns#" xmlns:rdf="http://www.w3.org/1999/02/22-rdf-syntax-ns#">
   <cc:Work>
    <dc:type rdf:resource="http://purl.org/dc/dcmitype/StillImage"/>
    <dc:date>2026-06-14T16:54:41.195787</dc:date>
    <dc:format>image/svg+xml</dc:format>
    <dc:creator>
     <cc:Agent>
      <dc:title>Matplotlib v3.9.0, https://matplotlib.org/</dc:title>
     </cc:Agent>
    </dc:creator>
   </cc:Work>
  </rdf:RDF>
 </metadata>
 <defs>
  <style type="text/css">*{stroke-linejoin: round; stroke-linecap: butt}</style>
 </defs>
 <g id="figure_1">
  <g id="patch_1">
   <path d="M 0 299.249375 
L 410.478539 299.249375 
L 410.478539 0 
L 0 0 
z
" style="fill: #ffffff"/>
  </g>
  <g id="axes_1">
   <g id="patch_2">
    <path d="M 41.921875 127.84375 
L 198.411796 127.84375 
L 198.411796 20.14375 
L 41.921875 20.14375 
z
" style="fill: #ffffff"/>
   </g>
   <g id="matplotlib.axis_1">
    <g id="xtick_1">
     <g id="line2d_1">
      <defs>
       <path id="m814926bc7c" d="M 0 0 
L 0 -3.5 
" style="stroke: #000000; stroke-width: 0.8"/>
      </defs>
      <g>
       <use xlink:href="#m814926bc7c" x="49.035053" y="127.84375" style="stroke: #000000; stroke-width: 0.8"/>
      </g>
     </g>
    </g>
    <g id="xtick_2">
     <g id="line2d_2">
      <g>
       <use xlink:href="#m814926bc7c" x="84.600944" y="127.84375" style="stroke: #000000; stroke-width: 0.8"/>
      </g>
     </g>
    </g>
    <g id="xtick_3">
     <g id="line2d_3">
      <g>
       <use xlink:href="#m814926bc7c" x="120.166836" y="127.84375" style="stroke: #000000; stroke-width: 0.8"/>
      </g>
     </g>
    </g>
    <g id="xtick_4">
     <g id="line2d_4">
      <g>
       <use xlink:href="#m814926bc7c" x="155.732727" y="127.84375" style="stroke: #000000; stroke-width: 0.8"/>
      </g>
     </g>
    </g>
    <g id="xtick_5">
     <g id="line2d_5">
      <g>
       <use xlink:href="#m814926bc7c" x="191.298618" y="127.84375" style="stroke: #000000; stroke-width: 0.8"/>
      </g>
     </g>
    </g>
   </g>
   <g id="matplotlib.axis_2">
    <g id="ytick_1">
     <g id="line2d_6">
      <defs>
       <path id="m0f4d09f4bd" d="M 0 0 
L 3.5 0 
" style="stroke: #000000; stroke-width: 0.8"/>
      </defs>
      <g>
       <use xlink:href="#m0f4d09f4bd" x="41.921875" y="127.84375" style="stroke: #000000; stroke-width: 0.8"/>
      </g>
     </g>
     <g id="text_1">
      <!-- −0.2 -->
      <g transform="translate(20.282813 131.315625) scale(0.1 -0.1)">
       <defs>
        <path id="TimesNewRomanPSMT-2212" d="M 3484 2000 
L 116 2000 
L 116 2256 
L 3484 2256 
L 3484 2000 
z
" transform="scale(0.015625)"/>
        <path id="TimesNewRomanPSMT-30" d="M 231 2094 
Q 231 2819 450 3342 
Q 669 3866 1031 4122 
Q 1313 4325 1613 4325 
Q 2100 4325 2488 3828 
Q 2972 3213 2972 2159 
Q 2972 1422 2759 906 
Q 2547 391 2217 158 
Q 1888 -75 1581 -75 
Q 975 -75 572 641 
Q 231 1244 231 2094 
z
M 844 2016 
Q 844 1141 1059 588 
Q 1238 122 1591 122 
Q 1759 122 1940 273 
Q 2122 425 2216 781 
Q 2359 1319 2359 2297 
Q 2359 3022 2209 3506 
Q 2097 3866 1919 4016 
Q 1791 4119 1609 4119 
Q 1397 4119 1231 3928 
Q 1006 3669 925 3112 
Q 844 2556 844 2016 
z
" transform="scale(0.015625)"/>
        <path id="TimesNewRomanPSMT-2e" d="M 800 606 
Q 947 606 1047 504 
Q 1147 403 1147 259 
Q 1147 116 1045 14 
Q 944 -88 800 -88 
Q 656 -88 554 14 
Q 453 116 453 259 
Q 453 406 554 506 
Q 656 606 800 606 
z
" transform="scale(0.015625)"/>
        <path id="TimesNewRomanPSMT-32" d="M 2934 816 
L 2638 0 
L 138 0 
L 138 116 
Q 1241 1122 1691 1759 
Q 2141 2397 2141 2925 
Q 2141 3328 1894 3587 
Q 1647 3847 1303 3847 
Q 991 3847 742 3664 
Q 494 3481 375 3128 
L 259 3128 
Q 338 3706 661 4015 
Q 984 4325 1469 4325 
Q 1984 4325 2329 3994 
Q 2675 3663 2675 3213 
Q 2675 2891 2525 2569 
Q 2294 2063 1775 1497 
Q 997 647 803 472 
L 1909 472 
Q 2247 472 2383 497 
Q 2519 522 2628 598 
Q 2738 675 2819 816 
L 2934 816 
z
" transform="scale(0.015625)"/>
       </defs>
       <use xlink:href="#TimesNewRomanPSMT-2212"/>
       <use xlink:href="#TimesNewRomanPSMT-30" x="56.396484"/>
       <use xlink:href="#TimesNewRomanPSMT-2e" x="106.396484"/>
       <use xlink:href="#TimesNewRomanPSMT-32" x="131.396484"/>
      </g>
     </g>
    </g>
    <g id="ytick_2">
     <g id="line2d_7">
      <g>
       <use xlink:href="#m0f4d09f4bd" x="41.921875" y="106.30375" style="stroke: #000000; stroke-width: 0.8"/>
      </g>
     </g>
     <g id="text_2">
      <!-- −0.1 -->
      <g transform="translate(20.282813 109.775625) scale(0.1 -0.1)">
       <defs>
        <path id="TimesNewRomanPSMT-31" d="M 750 3822 
L 1781 4325 
L 1884 4325 
L 1884 747 
Q 1884 391 1914 303 
Q 1944 216 2037 169 
Q 2131 122 2419 116 
L 2419 0 
L 825 0 
L 825 116 
Q 1125 122 1212 167 
Q 1300 213 1334 289 
Q 1369 366 1369 747 
L 1369 3034 
Q 1369 3497 1338 3628 
Q 1316 3728 1258 3775 
Q 1200 3822 1119 3822 
Q 1003 3822 797 3725 
L 750 3822 
z
" transform="scale(0.015625)"/>
       </defs>
       <use xlink:href="#TimesNewRomanPSMT-2212"/>
       <use xlink:href="#TimesNewRomanPSMT-30" x="56.396484"/>
       <use xlink:href="#TimesNewRomanPSMT-2e" x="106.396484"/>
       <use xlink:href="#TimesNewRomanPSMT-31" x="131.396484"/>
      </g>
     </g>
    </g>
    <g id="ytick_3">
     <g id="line2d_8">
      <g>
       <use xlink:href="#m0f4d09f4bd" x="41.921875" y="84.76375" style="stroke: #000000; stroke-width: 0.8"/>
      </g>
     </g>
     <g id="text_3">
      <!-- 0.0 -->
      <g transform="translate(25.921875 88.235625) scale(0.1 -0.1)">
       <use xlink:href="#TimesNewRomanPSMT-30"/>
       <use xlink:href="#TimesNewRomanPSMT-2e" x="50"/>
       <use xlink:href="#TimesNewRomanPSMT-30" x="75"/>
      </g>
     </g>
    </g>
    <g id="ytick_4">
     <g id="line2d_9">
      <g>
       <use xlink:href="#m0f4d09f4bd" x="41.921875" y="63.22375" style="stroke: #000000; stroke-width: 0.8"/>
      </g>
     </g>
     <g id="text_4">
      <!-- 0.1 -->
      <g transform="translate(25.921875 66.695625) scale(0.1 -0.1)">
       <use xlink:href="#TimesNewRomanPSMT-30"/>
       <use xlink:href="#TimesNewRomanPSMT-2e" x="50"/>
       <use xlink:href="#TimesNewRomanPSMT-31" x="75"/>
      </g>
     </g>
    </g>
    <g id="ytick_5">
     <g id="line2d_10">
      <g>
       <use xlink:href="#m0f4d09f4bd" x="41.921875" y="41.68375" style="stroke: #000000; stroke-width: 0.8"/>
      </g>
     </g>
     <g id="text_5">
      <!-- 0.2 -->
      <g transform="translate(25.921875 45.155625) scale(0.1 -0.1)">
       <use xlink:href="#TimesNewRomanPSMT-30"/>
       <use xlink:href="#TimesNewRomanPSMT-2e" x="50"/>
       <use xlink:href="#TimesNewRomanPSMT-32" x="75"/>
      </g>
     </g>
    </g>
    <g id="ytick_6">
     <g id="line2d_11">
      <g>
       <use xlink:href="#m0f4d09f4bd" x="41.921875" y="20.14375" style="stroke: #000000; stroke-width: 0.8"/>
      </g>
     </g>
     <g id="text_6">
      <!-- 0.3 -->
      <g transform="translate(25.921875 23.615625) scale(0.1 -0.1)">
       <defs>
        <path id="TimesNewRomanPSMT-33" d="M 325 3431 
Q 506 3859 782 4092 
Q 1059 4325 1472 4325 
Q 1981 4325 2253 3994 
Q 2459 3747 2459 3466 
Q 2459 3003 1878 2509 
Q 2269 2356 2469 2072 
Q 2669 1788 2669 1403 
Q 2669 853 2319 450 
Q 1863 -75 997 -75 
Q 569 -75 414 31 
Q 259 138 259 259 
Q 259 350 332 419 
Q 406 488 509 488 
Q 588 488 669 463 
Q 722 447 909 348 
Q 1097 250 1169 231 
Q 1284 197 1416 197 
Q 1734 197 1970 444 
Q 2206 691 2206 1028 
Q 2206 1275 2097 1509 
Q 2016 1684 1919 1775 
Q 1784 1900 1550 2001 
Q 1316 2103 1072 2103 
L 972 2103 
L 972 2197 
Q 1219 2228 1467 2375 
Q 1716 2522 1828 2728 
Q 1941 2934 1941 3181 
Q 1941 3503 1739 3701 
Q 1538 3900 1238 3900 
Q 753 3900 428 3381 
L 325 3431 
z
" transform="scale(0.015625)"/>
       </defs>
       <use xlink:href="#TimesNewRomanPSMT-30"/>
       <use xlink:href="#TimesNewRomanPSMT-2e" x="50"/>
       <use xlink:href="#TimesNewRomanPSMT-33" x="75"/>
      </g>
     </g>
    </g>
    <g id="text_7">
     <!-- Displacement (m) -->
     <g transform="translate(14.14375 109.953906) rotate(-90) scale(0.1 -0.1)">
      <defs>
       <path id="TimesNewRomanPSMT-44" d="M 109 0 
L 109 116 
L 269 116 
Q 538 116 650 288 
Q 719 391 719 750 
L 719 3488 
Q 719 3884 631 3984 
Q 509 4122 269 4122 
L 109 4122 
L 109 4238 
L 1834 4238 
Q 2784 4238 3279 4022 
Q 3775 3806 4076 3303 
Q 4378 2800 4378 2141 
Q 4378 1256 3841 663 
Q 3238 0 2003 0 
L 109 0 
z
M 1319 306 
Q 1716 219 1984 219 
Q 2709 219 3187 728 
Q 3666 1238 3666 2109 
Q 3666 2988 3187 3494 
Q 2709 4000 1959 4000 
Q 1678 4000 1319 3909 
L 1319 306 
z
" transform="scale(0.015625)"/>
       <path id="TimesNewRomanPSMT-69" d="M 928 4444 
Q 1059 4444 1151 4351 
Q 1244 4259 1244 4128 
Q 1244 3997 1151 3903 
Q 1059 3809 928 3809 
Q 797 3809 703 3903 
Q 609 3997 609 4128 
Q 609 4259 701 4351 
Q 794 4444 928 4444 
z
M 1188 2947 
L 1188 647 
Q 1188 378 1227 289 
Q 1266 200 1342 156 
Q 1419 113 1622 113 
L 1622 0 
L 231 0 
L 231 113 
Q 441 113 512 153 
Q 584 194 626 287 
Q 669 381 669 647 
L 669 1750 
Q 669 2216 641 2353 
Q 619 2453 572 2492 
Q 525 2531 444 2531 
Q 356 2531 231 2484 
L 188 2597 
L 1050 2947 
L 1188 2947 
z
" transform="scale(0.015625)"/>
       <path id="TimesNewRomanPSMT-73" d="M 2050 2947 
L 2050 1972 
L 1947 1972 
Q 1828 2431 1642 2597 
Q 1456 2763 1169 2763 
Q 950 2763 815 2647 
Q 681 2531 681 2391 
Q 681 2216 781 2091 
Q 878 1963 1175 1819 
L 1631 1597 
Q 2266 1288 2266 781 
Q 2266 391 1970 151 
Q 1675 -88 1309 -88 
Q 1047 -88 709 6 
Q 606 38 541 38 
Q 469 38 428 -44 
L 325 -44 
L 325 978 
L 428 978 
Q 516 541 762 319 
Q 1009 97 1316 97 
Q 1531 97 1667 223 
Q 1803 350 1803 528 
Q 1803 744 1651 891 
Q 1500 1038 1047 1263 
Q 594 1488 453 1669 
Q 313 1847 313 2119 
Q 313 2472 555 2709 
Q 797 2947 1181 2947 
Q 1350 2947 1591 2875 
Q 1750 2828 1803 2828 
Q 1853 2828 1881 2850 
Q 1909 2872 1947 2947 
L 2050 2947 
z
" transform="scale(0.015625)"/>
       <path id="TimesNewRomanPSMT-70" d="M -6 2578 
L 875 2934 
L 994 2934 
L 994 2266 
Q 1216 2644 1439 2795 
Q 1663 2947 1909 2947 
Q 2341 2947 2628 2609 
Q 2981 2197 2981 1534 
Q 2981 794 2556 309 
Q 2206 -88 1675 -88 
Q 1444 -88 1275 -22 
Q 1150 25 994 166 
L 994 -706 
Q 994 -1000 1030 -1079 
Q 1066 -1159 1155 -1206 
Q 1244 -1253 1478 -1253 
L 1478 -1369 
L -22 -1369 
L -22 -1253 
L 56 -1253 
Q 228 -1256 350 -1188 
Q 409 -1153 442 -1076 
Q 475 -1000 475 -688 
L 475 2019 
Q 475 2297 450 2372 
Q 425 2447 370 2484 
Q 316 2522 222 2522 
Q 147 2522 31 2478 
L -6 2578 
z
M 994 2081 
L 994 1013 
Q 994 666 1022 556 
Q 1066 375 1236 237 
Q 1406 100 1666 100 
Q 1978 100 2172 344 
Q 2425 663 2425 1241 
Q 2425 1897 2138 2250 
Q 1938 2494 1663 2494 
Q 1513 2494 1366 2419 
Q 1253 2363 994 2081 
z
" transform="scale(0.015625)"/>
       <path id="TimesNewRomanPSMT-6c" d="M 1184 4444 
L 1184 647 
Q 1184 378 1223 290 
Q 1263 203 1344 158 
Q 1425 113 1647 113 
L 1647 0 
L 244 0 
L 244 113 
Q 441 113 512 153 
Q 584 194 625 287 
Q 666 381 666 647 
L 666 3247 
Q 666 3731 644 3842 
Q 622 3953 573 3993 
Q 525 4034 450 4034 
Q 369 4034 244 3984 
L 191 4094 
L 1044 4444 
L 1184 4444 
z
" transform="scale(0.015625)"/>
       <path id="TimesNewRomanPSMT-61" d="M 1822 413 
Q 1381 72 1269 19 
Q 1100 -59 909 -59 
Q 613 -59 420 144 
Q 228 347 228 678 
Q 228 888 322 1041 
Q 450 1253 767 1440 
Q 1084 1628 1822 1897 
L 1822 2009 
Q 1822 2438 1686 2597 
Q 1550 2756 1291 2756 
Q 1094 2756 978 2650 
Q 859 2544 859 2406 
L 866 2225 
Q 866 2081 792 2003 
Q 719 1925 600 1925 
Q 484 1925 411 2006 
Q 338 2088 338 2228 
Q 338 2497 613 2722 
Q 888 2947 1384 2947 
Q 1766 2947 2009 2819 
Q 2194 2722 2281 2516 
Q 2338 2381 2338 1966 
L 2338 994 
Q 2338 584 2353 492 
Q 2369 400 2405 369 
Q 2441 338 2488 338 
Q 2538 338 2575 359 
Q 2641 400 2828 588 
L 2828 413 
Q 2478 -56 2159 -56 
Q 2006 -56 1915 50 
Q 1825 156 1822 413 
z
M 1822 616 
L 1822 1706 
Q 1350 1519 1213 1441 
Q 966 1303 859 1153 
Q 753 1003 753 825 
Q 753 600 887 451 
Q 1022 303 1197 303 
Q 1434 303 1822 616 
z
" transform="scale(0.015625)"/>
       <path id="TimesNewRomanPSMT-63" d="M 2631 1088 
Q 2516 522 2178 217 
Q 1841 -88 1431 -88 
Q 944 -88 581 321 
Q 219 731 219 1428 
Q 219 2103 620 2525 
Q 1022 2947 1584 2947 
Q 2006 2947 2278 2723 
Q 2550 2500 2550 2259 
Q 2550 2141 2473 2067 
Q 2397 1994 2259 1994 
Q 2075 1994 1981 2113 
Q 1928 2178 1911 2362 
Q 1894 2547 1784 2644 
Q 1675 2738 1481 2738 
Q 1169 2738 978 2506 
Q 725 2200 725 1697 
Q 725 1184 976 792 
Q 1228 400 1656 400 
Q 1963 400 2206 609 
Q 2378 753 2541 1131 
L 2631 1088 
z
" transform="scale(0.015625)"/>
       <path id="TimesNewRomanPSMT-65" d="M 681 1784 
Q 678 1147 991 784 
Q 1303 422 1725 422 
Q 2006 422 2214 576 
Q 2422 731 2563 1106 
L 2659 1044 
Q 2594 616 2278 264 
Q 1963 -88 1488 -88 
Q 972 -88 605 314 
Q 238 716 238 1394 
Q 238 2128 614 2539 
Q 991 2950 1559 2950 
Q 2041 2950 2350 2633 
Q 2659 2316 2659 1784 
L 681 1784 
z
M 681 1966 
L 2006 1966 
Q 1991 2241 1941 2353 
Q 1863 2528 1708 2628 
Q 1553 2728 1384 2728 
Q 1125 2728 920 2526 
Q 716 2325 681 1966 
z
" transform="scale(0.015625)"/>
       <path id="TimesNewRomanPSMT-6d" d="M 1050 2338 
Q 1363 2650 1419 2697 
Q 1559 2816 1721 2881 
Q 1884 2947 2044 2947 
Q 2313 2947 2506 2790 
Q 2700 2634 2766 2338 
Q 3088 2713 3309 2830 
Q 3531 2947 3766 2947 
Q 3994 2947 4170 2830 
Q 4347 2713 4450 2447 
Q 4519 2266 4519 1878 
L 4519 647 
Q 4519 378 4559 278 
Q 4591 209 4675 161 
Q 4759 113 4950 113 
L 4950 0 
L 3538 0 
L 3538 113 
L 3597 113 
Q 3781 113 3884 184 
Q 3956 234 3988 344 
Q 4000 397 4000 647 
L 4000 1878 
Q 4000 2228 3916 2372 
Q 3794 2572 3525 2572 
Q 3359 2572 3192 2489 
Q 3025 2406 2788 2181 
L 2781 2147 
L 2788 2013 
L 2788 647 
Q 2788 353 2820 281 
Q 2853 209 2943 161 
Q 3034 113 3253 113 
L 3253 0 
L 1806 0 
L 1806 113 
Q 2044 113 2133 169 
Q 2222 225 2256 338 
Q 2272 391 2272 647 
L 2272 1878 
Q 2272 2228 2169 2381 
Q 2031 2581 1784 2581 
Q 1616 2581 1450 2491 
Q 1191 2353 1050 2181 
L 1050 647 
Q 1050 366 1089 281 
Q 1128 197 1204 155 
Q 1281 113 1516 113 
L 1516 0 
L 100 0 
L 100 113 
Q 297 113 375 155 
Q 453 197 493 289 
Q 534 381 534 647 
L 534 1741 
Q 534 2213 506 2350 
Q 484 2453 437 2492 
Q 391 2531 309 2531 
Q 222 2531 100 2484 
L 53 2597 
L 916 2947 
L 1050 2947 
L 1050 2338 
z
" transform="scale(0.015625)"/>
       <path id="TimesNewRomanPSMT-6e" d="M 1034 2341 
Q 1538 2947 1994 2947 
Q 2228 2947 2397 2830 
Q 2566 2713 2666 2444 
Q 2734 2256 2734 1869 
L 2734 647 
Q 2734 375 2778 278 
Q 2813 200 2889 156 
Q 2966 113 3172 113 
L 3172 0 
L 1756 0 
L 1756 113 
L 1816 113 
Q 2016 113 2095 173 
Q 2175 234 2206 353 
Q 2219 400 2219 647 
L 2219 1819 
Q 2219 2209 2117 2386 
Q 2016 2563 1775 2563 
Q 1403 2563 1034 2156 
L 1034 647 
Q 1034 356 1069 288 
Q 1113 197 1189 155 
Q 1266 113 1500 113 
L 1500 0 
L 84 0 
L 84 113 
L 147 113 
Q 366 113 442 223 
Q 519 334 519 647 
L 519 1709 
Q 519 2225 495 2337 
Q 472 2450 423 2490 
Q 375 2531 294 2531 
Q 206 2531 84 2484 
L 38 2597 
L 900 2947 
L 1034 2947 
L 1034 2341 
z
" transform="scale(0.015625)"/>
       <path id="TimesNewRomanPSMT-74" d="M 1031 3803 
L 1031 2863 
L 1700 2863 
L 1700 2644 
L 1031 2644 
L 1031 788 
Q 1031 509 1111 412 
Q 1191 316 1316 316 
Q 1419 316 1516 380 
Q 1613 444 1666 569 
L 1788 569 
Q 1678 263 1478 108 
Q 1278 -47 1066 -47 
Q 922 -47 784 33 
Q 647 113 581 261 
Q 516 409 516 719 
L 516 2644 
L 63 2644 
L 63 2747 
Q 234 2816 414 2980 
Q 594 3144 734 3369 
Q 806 3488 934 3803 
L 1031 3803 
z
" transform="scale(0.015625)"/>
       <path id="TimesNewRomanPSMT-20" transform="scale(0.015625)"/>
       <path id="TimesNewRomanPSMT-28" d="M 1988 -1253 
L 1988 -1369 
Q 1516 -1131 1200 -813 
Q 750 -359 506 256 
Q 263 872 263 1534 
Q 263 2503 741 3301 
Q 1219 4100 1988 4444 
L 1988 4313 
Q 1603 4100 1356 3731 
Q 1109 3363 987 2797 
Q 866 2231 866 1616 
Q 866 947 969 400 
Q 1050 -31 1165 -292 
Q 1281 -553 1476 -793 
Q 1672 -1034 1988 -1253 
z
" transform="scale(0.015625)"/>
       <path id="TimesNewRomanPSMT-29" d="M 144 4313 
L 144 4444 
Q 619 4209 934 3891 
Q 1381 3434 1625 2820 
Q 1869 2206 1869 1541 
Q 1869 572 1392 -226 
Q 916 -1025 144 -1369 
L 144 -1253 
Q 528 -1038 776 -670 
Q 1025 -303 1145 264 
Q 1266 831 1266 1447 
Q 1266 2113 1163 2663 
Q 1084 3094 967 3353 
Q 850 3613 656 3853 
Q 463 4094 144 4313 
z
" transform="scale(0.015625)"/>
      </defs>
      <use xlink:href="#TimesNewRomanPSMT-44"/>
      <use xlink:href="#TimesNewRomanPSMT-69" x="72.216797"/>
      <use xlink:href="#TimesNewRomanPSMT-73" x="100"/>
      <use xlink:href="#TimesNewRomanPSMT-70" x="138.916016"/>
      <use xlink:href="#TimesNewRomanPSMT-6c" x="188.916016"/>
      <use xlink:href="#TimesNewRomanPSMT-61" x="216.699219"/>
      <use xlink:href="#TimesNewRomanPSMT-63" x="261.083984"/>
      <use xlink:href="#TimesNewRomanPSMT-65" x="305.46875"/>
      <use xlink:href="#TimesNewRomanPSMT-6d" x="349.853516"/>
      <use xlink:href="#TimesNewRomanPSMT-65" x="427.636719"/>
      <use xlink:href="#TimesNewRomanPSMT-6e" x="472.021484"/>
      <use xlink:href="#TimesNewRomanPSMT-74" x="522.021484"/>
      <use xlink:href="#TimesNewRomanPSMT-20" x="549.804688"/>
      <use xlink:href="#TimesNewRomanPSMT-28" x="574.804688"/>
      <use xlink:href="#TimesNewRomanPSMT-6d" x="608.105469"/>
      <use xlink:href="#TimesNewRomanPSMT-29" x="685.888672"/>
     </g>
    </g>
   </g>
   <g id="patch_3">
    <path d="M 41.921875 127.84375 
L 41.921875 20.14375 
" style="fill: none; stroke: #000000; stroke-width: 0.8; stroke-linejoin: miter; stroke-linecap: square"/>
   </g>
   <g id="patch_4">
    <path d="M 198.411796 127.84375 
L 198.411796 20.14375 
" style="fill: none; stroke: #000000; stroke-width: 0.8; stroke-linejoin: miter; stroke-linecap: square"/>
   </g>
   <g id="patch_5">
    <path d="M 41.921875 127.84375 
L 198.411796 127.84375 
" style="fill: none; stroke: #000000; stroke-width: 0.8; stroke-linejoin: miter; stroke-linecap: square"/>
   </g>
   <g id="patch_6">
    <path d="M 41.921875 20.14375 
L 198.411796 20.14375 
" style="fill: none; stroke: #000000; stroke-width: 0.8; stroke-linejoin: miter; stroke-linecap: square"/>
   </g>
   <g id="line2d_12">
    <path d="M 49.035053 84.76375 
L 50.10203 84.635424 
L 51.169007 84.26009 
L 52.235983 83.654742 
L 53.658619 82.534293 
L 55.436914 80.745914 
L 57.215208 78.641054 
L 58.993503 76.198608 
L 60.416138 73.90945 
L 62.194433 70.558823 
L 64.684045 65.223127 
L 67.173658 60.052107 
L 68.596293 57.583537 
L 70.018929 55.604215 
L 71.085906 54.440206 
L 72.508541 53.261558 
L 73.931177 52.433239 
L 75.353813 51.905125 
L 76.420789 51.707467 
L 77.487766 51.697253 
L 78.554743 51.892556 
L 79.62172 52.308253 
L 80.688696 52.958069 
L 81.755673 53.859663 
L 82.82265 55.037173 
L 83.889627 56.516489 
L 85.312262 58.975971 
L 86.734898 61.932793 
L 89.22451 67.758353 
L 92.42544 75.109811 
L 95.98203 82.711356 
L 98.115983 86.787366 
L 99.894278 89.630752 
L 101.672572 91.974291 
L 103.095208 93.537239 
L 104.517844 94.778835 
L 105.58482 95.422317 
L 106.651797 95.753952 
L 107.363115 95.784232 
L 108.074433 95.660418 
L 109.141409 95.202341 
L 110.208386 94.455578 
L 111.275363 93.46399 
L 112.697998 91.808895 
L 114.120634 89.796781 
L 115.898929 86.842705 
L 121.589471 76.888441 
L 127.991332 66.786442 
L 129.413967 65.041084 
L 130.480944 64.050029 
L 131.547921 63.380032 
L 132.614898 63.057167 
L 133.326215 63.040088 
L 134.037533 63.180073 
L 135.10451 63.672046 
L 136.171487 64.47323 
L 137.238463 65.538997 
L 138.661099 67.28313 
L 140.439394 69.829507 
L 142.573347 73.25998 
L 144.707301 77.117866 
L 146.485595 80.802028 
L 148.26389 84.994618 
L 153.598773 98.186635 
L 155.021409 100.994116 
L 156.444045 103.377842 
L 157.86668 105.367908 
L 159.289316 106.962798 
L 160.356293 107.879915 
L 161.423269 108.547515 
L 162.490246 108.975066 
L 163.557223 109.189114 
L 164.6242 109.219121 
L 165.691176 109.077453 
L 166.758153 108.747404 
L 167.82513 108.188228 
L 168.892107 107.355476 
L 169.959083 106.227228 
L 171.381719 104.300093 
L 173.160014 101.414422 
L 176.005285 96.313103 
L 181.340168 86.534694 
L 182.762804 84.504179 
L 184.18544 82.901217 
L 185.608075 81.656908 
L 187.030711 80.678195 
L 188.453347 79.940642 
L 189.520323 79.582749 
L 190.5873 79.438651 
L 191.298618 79.479585 
L 191.298618 79.479585 
" clip-path="url(#p95373646f8)" style="fill: none; stroke: #1f77b4; stroke-width: 0.9; stroke-linecap: square"/>
   </g>
   <g id="text_8">
    <!-- (a) -->
    <g transform="translate(45.051673 31.3955) scale(0.1 -0.1)">
     <use xlink:href="#TimesNewRomanPSMT-28"/>
     <use xlink:href="#TimesNewRomanPSMT-61" x="33.300781"/>
     <use xlink:href="#TimesNewRomanPSMT-29" x="77.685547"/>
    </g>
   </g>
   <g id="text_9">
    <!-- Left interface -->
    <g transform="translate(93.103554 14.14375) scale(0.1 -0.1)">
     <defs>
      <path id="TimesNewRomanPSMT-4c" d="M 3669 1172 
L 3772 1150 
L 3409 0 
L 128 0 
L 128 116 
L 288 116 
Q 556 116 672 291 
Q 738 391 738 753 
L 738 3488 
Q 738 3884 650 3984 
Q 528 4122 288 4122 
L 128 4122 
L 128 4238 
L 2047 4238 
L 2047 4122 
Q 1709 4125 1573 4059 
Q 1438 3994 1388 3894 
Q 1338 3794 1338 3416 
L 1338 753 
Q 1338 494 1388 397 
Q 1425 331 1503 300 
Q 1581 269 1991 269 
L 2300 269 
Q 2788 269 2984 341 
Q 3181 413 3343 595 
Q 3506 778 3669 1172 
z
" transform="scale(0.015625)"/>
      <path id="TimesNewRomanPSMT-66" d="M 1319 2638 
L 1319 756 
Q 1319 356 1406 250 
Q 1522 113 1716 113 
L 1975 113 
L 1975 0 
L 266 0 
L 266 113 
L 394 113 
Q 519 113 622 175 
Q 725 238 764 344 
Q 803 450 803 756 
L 803 2638 
L 247 2638 
L 247 2863 
L 803 2863 
L 803 3050 
Q 803 3478 940 3775 
Q 1078 4072 1361 4255 
Q 1644 4438 1997 4438 
Q 2325 4438 2600 4225 
Q 2781 4084 2781 3909 
Q 2781 3816 2700 3733 
Q 2619 3650 2525 3650 
Q 2453 3650 2373 3701 
Q 2294 3753 2178 3923 
Q 2063 4094 1966 4153 
Q 1869 4213 1750 4213 
Q 1606 4213 1506 4136 
Q 1406 4059 1362 3898 
Q 1319 3738 1319 3069 
L 1319 2863 
L 2056 2863 
L 2056 2638 
L 1319 2638 
z
" transform="scale(0.015625)"/>
      <path id="TimesNewRomanPSMT-72" d="M 1038 2947 
L 1038 2303 
Q 1397 2947 1775 2947 
Q 1947 2947 2059 2842 
Q 2172 2738 2172 2600 
Q 2172 2478 2090 2393 
Q 2009 2309 1897 2309 
Q 1788 2309 1652 2417 
Q 1516 2525 1450 2525 
Q 1394 2525 1328 2463 
Q 1188 2334 1038 2041 
L 1038 669 
Q 1038 431 1097 309 
Q 1138 225 1241 169 
Q 1344 113 1538 113 
L 1538 0 
L 72 0 
L 72 113 
Q 291 113 397 181 
Q 475 231 506 341 
Q 522 394 522 644 
L 522 1753 
Q 522 2253 501 2348 
Q 481 2444 426 2487 
Q 372 2531 291 2531 
Q 194 2531 72 2484 
L 41 2597 
L 906 2947 
L 1038 2947 
z
" transform="scale(0.015625)"/>
     </defs>
     <use xlink:href="#TimesNewRomanPSMT-4c"/>
     <use xlink:href="#TimesNewRomanPSMT-65" x="61.083984"/>
     <use xlink:href="#TimesNewRomanPSMT-66" x="105.46875"/>
     <use xlink:href="#TimesNewRomanPSMT-74" x="138.769531"/>
     <use xlink:href="#TimesNewRomanPSMT-20" x="166.552734"/>
     <use xlink:href="#TimesNewRomanPSMT-69" x="191.552734"/>
     <use xlink:href="#TimesNewRomanPSMT-6e" x="219.335938"/>
     <use xlink:href="#TimesNewRomanPSMT-74" x="269.335938"/>
     <use xlink:href="#TimesNewRomanPSMT-65" x="297.119141"/>
     <use xlink:href="#TimesNewRomanPSMT-72" x="341.503906"/>
     <use xlink:href="#TimesNewRomanPSMT-66" x="374.804688"/>
     <use xlink:href="#TimesNewRomanPSMT-61" x="408.105469"/>
     <use xlink:href="#TimesNewRomanPSMT-63" x="452.490234"/>
     <use xlink:href="#TimesNewRomanPSMT-65" x="496.875"/>
    </g>
   </g>
   <g id="line2d_13">
    <path d="M 49.035053 84.536869 
L 50.457689 84.450063 
L 51.169007 84.284571 
L 52.591642 83.512858 
L 55.081255 81.227571 
L 58.637844 76.794058 
L 61.838774 71.402186 
L 63.617069 67.630037 
L 63.972728 67.016535 
L 64.684045 65.149598 
L 66.46234 61.579602 
L 66.817999 61.009933 
L 67.529317 59.468445 
L 68.951952 57.084656 
L 71.797224 53.844566 
L 73.219859 52.831131 
L 74.642495 52.140515 
L 76.065131 51.74013 
L 77.132107 51.6639 
L 78.199084 51.768283 
L 78.910402 51.966537 
L 79.977379 52.529614 
L 81.400014 53.371634 
L 82.466991 54.428882 
L 84.600944 57.526011 
L 85.667921 59.515036 
L 86.734898 61.652364 
L 88.157534 64.900747 
L 89.580169 68.302839 
L 90.291487 70.177336 
L 90.647146 70.833574 
L 92.069782 74.181342 
L 92.42544 74.809599 
L 94.203735 79.01802 
L 95.270712 80.933658 
L 95.98203 82.576363 
L 96.337689 83.154238 
L 97.404665 85.465523 
L 98.471642 87.080312 
L 99.18296 88.409244 
L 99.894278 89.461409 
L 101.672572 91.807093 
L 103.450867 93.714503 
L 104.517844 94.665753 
L 106.296138 95.545899 
L 107.007456 95.678068 
L 108.074433 95.569334 
L 108.78575 95.29737 
L 110.919704 93.809624 
L 112.34234 92.294866 
L 115.187611 88.147878 
L 117.321564 84.224431 
L 117.677223 83.710982 
L 118.7442 81.639028 
L 119.455518 80.528835 
L 120.166836 79.150749 
L 127.280014 67.819309 
L 129.058308 65.358558 
L 131.192262 63.487615 
L 132.259239 63.016363 
L 133.326215 62.905604 
L 134.037533 63.044645 
L 135.10451 63.466204 
L 136.882804 64.992679 
L 137.949781 66.144143 
L 141.862029 71.758286 
L 142.929006 73.678577 
L 143.640324 74.770224 
L 147.196913 82.180738 
L 148.619549 85.494193 
L 149.686525 88.245669 
L 154.310091 99.574245 
L 158.222339 105.473405 
L 159.644975 106.980623 
L 161.067611 108.050902 
L 161.778928 108.436016 
L 162.845905 108.79834 
L 163.912882 108.94673 
L 164.979859 108.92142 
L 166.402494 108.605536 
L 167.82513 107.910763 
L 168.536448 107.411768 
L 170.314742 105.601826 
L 171.381719 104.111883 
L 172.448696 102.414014 
L 174.22699 99.366922 
L 175.293967 97.412318 
L 176.716603 94.658127 
L 181.340168 86.241502 
L 182.051486 85.21301 
L 182.762804 84.188632 
L 183.474122 83.416918 
L 183.829781 82.906227 
L 187.030711 80.317765 
L 188.809006 79.412223 
L 190.5873 79.032753 
L 191.298618 79.017438 
L 191.298618 79.017438 
" clip-path="url(#p95373646f8)" style="fill: none; stroke-dasharray: 4.07,1.76; stroke-dashoffset: 0; stroke: #d62728; stroke-width: 1.1"/>
   </g>
   <g id="legend_1">
    <g id="line2d_14">
     <path d="M 116.631328 31.39375 
L 125.631328 31.39375 
L 134.631328 31.39375 
" style="fill: none; stroke: #1f77b4; stroke-width: 0.9; stroke-linecap: square"/>
    </g>
    <g id="text_10">
     <!-- Numerical -->
     <g transform="translate(141.831328 34.54375) scale(0.09 -0.09)">
      <defs>
       <path id="TimesNewRomanPSMT-4e" d="M -84 4238 
L 1066 4238 
L 3656 1059 
L 3656 3503 
Q 3656 3894 3569 3991 
Q 3453 4122 3203 4122 
L 3056 4122 
L 3056 4238 
L 4531 4238 
L 4531 4122 
L 4381 4122 
Q 4113 4122 4000 3959 
Q 3931 3859 3931 3503 
L 3931 -69 
L 3819 -69 
L 1025 3344 
L 1025 734 
Q 1025 344 1109 247 
Q 1228 116 1475 116 
L 1625 116 
L 1625 0 
L 150 0 
L 150 116 
L 297 116 
Q 569 116 681 278 
Q 750 378 750 734 
L 750 3681 
Q 566 3897 470 3965 
Q 375 4034 191 4094 
Q 100 4122 -84 4122 
L -84 4238 
z
" transform="scale(0.015625)"/>
       <path id="TimesNewRomanPSMT-75" d="M 2709 2863 
L 2709 1128 
Q 2709 631 2732 520 
Q 2756 409 2807 365 
Q 2859 322 2928 322 
Q 3025 322 3147 375 
L 3191 266 
L 2334 -88 
L 2194 -88 
L 2194 519 
Q 1825 119 1631 15 
Q 1438 -88 1222 -88 
Q 981 -88 804 51 
Q 628 191 559 409 
Q 491 628 491 1028 
L 491 2306 
Q 491 2509 447 2587 
Q 403 2666 317 2708 
Q 231 2750 6 2747 
L 6 2863 
L 1009 2863 
L 1009 947 
Q 1009 547 1148 422 
Q 1288 297 1484 297 
Q 1619 297 1789 381 
Q 1959 466 2194 703 
L 2194 2325 
Q 2194 2569 2105 2655 
Q 2016 2741 1734 2747 
L 1734 2863 
L 2709 2863 
z
" transform="scale(0.015625)"/>
      </defs>
      <use xlink:href="#TimesNewRomanPSMT-4e"/>
      <use xlink:href="#TimesNewRomanPSMT-75" x="72.216797"/>
      <use xlink:href="#TimesNewRomanPSMT-6d" x="122.216797"/>
      <use xlink:href="#TimesNewRomanPSMT-65" x="200"/>
      <use xlink:href="#TimesNewRomanPSMT-72" x="244.384766"/>
      <use xlink:href="#TimesNewRomanPSMT-69" x="277.685547"/>
      <use xlink:href="#TimesNewRomanPSMT-63" x="305.46875"/>
      <use xlink:href="#TimesNewRomanPSMT-61" x="349.853516"/>
      <use xlink:href="#TimesNewRomanPSMT-6c" x="394.238281"/>
     </g>
    </g>
    <g id="line2d_15">
     <path d="M 116.631328 44.118906 
L 125.631328 44.118906 
L 134.631328 44.118906 
" style="fill: none; stroke-dasharray: 4.07,1.76; stroke-dashoffset: 0; stroke: #d62728; stroke-width: 1.1"/>
    </g>
    <g id="text_11">
     <!-- Experimental -->
     <g transform="translate(141.831328 47.268906) scale(0.09 -0.09)">
      <defs>
       <path id="TimesNewRomanPSMT-45" d="M 1338 4006 
L 1338 2331 
L 2269 2331 
Q 2631 2331 2753 2441 
Q 2916 2584 2934 2947 
L 3050 2947 
L 3050 1472 
L 2934 1472 
Q 2891 1781 2847 1869 
Q 2791 1978 2662 2040 
Q 2534 2103 2269 2103 
L 1338 2103 
L 1338 706 
Q 1338 425 1363 364 
Q 1388 303 1450 267 
Q 1513 231 1688 231 
L 2406 231 
Q 2766 231 2928 281 
Q 3091 331 3241 478 
Q 3434 672 3638 1063 
L 3763 1063 
L 3397 0 
L 131 0 
L 131 116 
L 281 116 
Q 431 116 566 188 
Q 666 238 702 338 
Q 738 438 738 747 
L 738 3500 
Q 738 3903 656 3997 
Q 544 4122 281 4122 
L 131 4122 
L 131 4238 
L 3397 4238 
L 3444 3309 
L 3322 3309 
Q 3256 3644 3176 3769 
Q 3097 3894 2941 3959 
Q 2816 4006 2500 4006 
L 1338 4006 
z
" transform="scale(0.015625)"/>
       <path id="TimesNewRomanPSMT-78" d="M 84 2863 
L 1431 2863 
L 1431 2747 
Q 1303 2747 1251 2703 
Q 1200 2659 1200 2588 
Q 1200 2513 1309 2356 
Q 1344 2306 1413 2200 
L 1616 1875 
L 1850 2200 
Q 2075 2509 2075 2591 
Q 2075 2656 2022 2701 
Q 1969 2747 1850 2747 
L 1850 2863 
L 2819 2863 
L 2819 2747 
Q 2666 2738 2553 2663 
Q 2400 2556 2134 2200 
L 1744 1678 
L 2456 653 
Q 2719 275 2831 198 
Q 2944 122 3122 113 
L 3122 0 
L 1772 0 
L 1772 113 
Q 1913 113 1991 175 
Q 2050 219 2050 291 
Q 2050 363 1850 653 
L 1431 1266 
L 972 653 
Q 759 369 759 316 
Q 759 241 829 180 
Q 900 119 1041 113 
L 1041 0 
L 106 0 
L 106 113 
Q 219 128 303 191 
Q 422 281 703 653 
L 1303 1450 
L 759 2238 
Q 528 2575 401 2661 
Q 275 2747 84 2747 
L 84 2863 
z
" transform="scale(0.015625)"/>
      </defs>
      <use xlink:href="#TimesNewRomanPSMT-45"/>
      <use xlink:href="#TimesNewRomanPSMT-78" x="61.083984"/>
      <use xlink:href="#TimesNewRomanPSMT-70" x="111.083984"/>
      <use xlink:href="#TimesNewRomanPSMT-65" x="161.083984"/>
      <use xlink:href="#TimesNewRomanPSMT-72" x="205.46875"/>
      <use xlink:href="#TimesNewRomanPSMT-69" x="238.769531"/>
      <use xlink:href="#TimesNewRomanPSMT-6d" x="266.552734"/>
      <use xlink:href="#TimesNewRomanPSMT-65" x="344.335938"/>
      <use xlink:href="#TimesNewRomanPSMT-6e" x="388.720703"/>
      <use xlink:href="#TimesNewRomanPSMT-74" x="438.720703"/>
      <use xlink:href="#TimesNewRomanPSMT-61" x="466.503906"/>
      <use xlink:href="#TimesNewRomanPSMT-6c" x="510.888672"/>
     </g>
    </g>
   </g>
  </g>
  <g id="axes_2">
   <g id="patch_7">
    <path d="M 245.151796 127.84375 
L 401.641718 127.84375 
L 401.641718 20.14375 
L 245.151796 20.14375 
z
" style="fill: #ffffff"/>
   </g>
   <g id="matplotlib.axis_3">
    <g id="xtick_6">
     <g id="line2d_16">
      <g>
       <use xlink:href="#m814926bc7c" x="252.264974" y="127.84375" style="stroke: #000000; stroke-width: 0.8"/>
      </g>
     </g>
    </g>
    <g id="xtick_7">
     <g id="line2d_17">
      <g>
       <use xlink:href="#m814926bc7c" x="287.830866" y="127.84375" style="stroke: #000000; stroke-width: 0.8"/>
      </g>
     </g>
    </g>
    <g id="xtick_8">
     <g id="line2d_18">
      <g>
       <use xlink:href="#m814926bc7c" x="323.396757" y="127.84375" style="stroke: #000000; stroke-width: 0.8"/>
      </g>
     </g>
    </g>
    <g id="xtick_9">
     <g id="line2d_19">
      <g>
       <use xlink:href="#m814926bc7c" x="358.962648" y="127.84375" style="stroke: #000000; stroke-width: 0.8"/>
      </g>
     </g>
    </g>
    <g id="xtick_10">
     <g id="line2d_20">
      <g>
       <use xlink:href="#m814926bc7c" x="394.528539" y="127.84375" style="stroke: #000000; stroke-width: 0.8"/>
      </g>
     </g>
    </g>
   </g>
   <g id="matplotlib.axis_4">
    <g id="ytick_7">
     <g id="line2d_21">
      <g>
       <use xlink:href="#m0f4d09f4bd" x="245.151796" y="127.84375" style="stroke: #000000; stroke-width: 0.8"/>
      </g>
     </g>
     <g id="text_12">
      <!-- −0.1 -->
      <g transform="translate(223.512734 131.315625) scale(0.1 -0.1)">
       <use xlink:href="#TimesNewRomanPSMT-2212"/>
       <use xlink:href="#TimesNewRomanPSMT-30" x="56.396484"/>
       <use xlink:href="#TimesNewRomanPSMT-2e" x="106.396484"/>
       <use xlink:href="#TimesNewRomanPSMT-31" x="131.396484"/>
      </g>
     </g>
    </g>
    <g id="ytick_8">
     <g id="line2d_22">
      <g>
       <use xlink:href="#m0f4d09f4bd" x="245.151796" y="109.89375" style="stroke: #000000; stroke-width: 0.8"/>
      </g>
     </g>
     <g id="text_13">
      <!-- 0.0 -->
      <g transform="translate(229.151796 113.365625) scale(0.1 -0.1)">
       <use xlink:href="#TimesNewRomanPSMT-30"/>
       <use xlink:href="#TimesNewRomanPSMT-2e" x="50"/>
       <use xlink:href="#TimesNewRomanPSMT-30" x="75"/>
      </g>
     </g>
    </g>
    <g id="ytick_9">
     <g id="line2d_23">
      <g>
       <use xlink:href="#m0f4d09f4bd" x="245.151796" y="91.94375" style="stroke: #000000; stroke-width: 0.8"/>
      </g>
     </g>
     <g id="text_14">
      <!-- 0.1 -->
      <g transform="translate(229.151796 95.415625) scale(0.1 -0.1)">
       <use xlink:href="#TimesNewRomanPSMT-30"/>
       <use xlink:href="#TimesNewRomanPSMT-2e" x="50"/>
       <use xlink:href="#TimesNewRomanPSMT-31" x="75"/>
      </g>
     </g>
    </g>
    <g id="ytick_10">
     <g id="line2d_24">
      <g>
       <use xlink:href="#m0f4d09f4bd" x="245.151796" y="73.99375" style="stroke: #000000; stroke-width: 0.8"/>
      </g>
     </g>
     <g id="text_15">
      <!-- 0.2 -->
      <g transform="translate(229.151796 77.465625) scale(0.1 -0.1)">
       <use xlink:href="#TimesNewRomanPSMT-30"/>
       <use xlink:href="#TimesNewRomanPSMT-2e" x="50"/>
       <use xlink:href="#TimesNewRomanPSMT-32" x="75"/>
      </g>
     </g>
    </g>
    <g id="ytick_11">
     <g id="line2d_25">
      <g>
       <use xlink:href="#m0f4d09f4bd" x="245.151796" y="56.04375" style="stroke: #000000; stroke-width: 0.8"/>
      </g>
     </g>
     <g id="text_16">
      <!-- 0.3 -->
      <g transform="translate(229.151796 59.515625) scale(0.1 -0.1)">
       <use xlink:href="#TimesNewRomanPSMT-30"/>
       <use xlink:href="#TimesNewRomanPSMT-2e" x="50"/>
       <use xlink:href="#TimesNewRomanPSMT-33" x="75"/>
      </g>
     </g>
    </g>
    <g id="ytick_12">
     <g id="line2d_26">
      <g>
       <use xlink:href="#m0f4d09f4bd" x="245.151796" y="38.09375" style="stroke: #000000; stroke-width: 0.8"/>
      </g>
     </g>
     <g id="text_17">
      <!-- 0.4 -->
      <g transform="translate(229.151796 41.565625) scale(0.1 -0.1)">
       <defs>
        <path id="TimesNewRomanPSMT-34" d="M 2978 1563 
L 2978 1119 
L 2409 1119 
L 2409 0 
L 1894 0 
L 1894 1119 
L 100 1119 
L 100 1519 
L 2066 4325 
L 2409 4325 
L 2409 1563 
L 2978 1563 
z
M 1894 1563 
L 1894 3666 
L 406 1563 
L 1894 1563 
z
" transform="scale(0.015625)"/>
       </defs>
       <use xlink:href="#TimesNewRomanPSMT-30"/>
       <use xlink:href="#TimesNewRomanPSMT-2e" x="50"/>
       <use xlink:href="#TimesNewRomanPSMT-34" x="75"/>
      </g>
     </g>
    </g>
    <g id="ytick_13">
     <g id="line2d_27">
      <g>
       <use xlink:href="#m0f4d09f4bd" x="245.151796" y="20.14375" style="stroke: #000000; stroke-width: 0.8"/>
      </g>
     </g>
     <g id="text_18">
      <!-- 0.5 -->
      <g transform="translate(229.151796 23.615625) scale(0.1 -0.1)">
       <defs>
        <path id="TimesNewRomanPSMT-35" d="M 2778 4238 
L 2534 3706 
L 1259 3706 
L 981 3138 
Q 1809 3016 2294 2522 
Q 2709 2097 2709 1522 
Q 2709 1188 2573 903 
Q 2438 619 2231 419 
Q 2025 219 1772 97 
Q 1413 -75 1034 -75 
Q 653 -75 479 54 
Q 306 184 306 341 
Q 306 428 378 495 
Q 450 563 559 563 
Q 641 563 702 538 
Q 763 513 909 409 
Q 1144 247 1384 247 
Q 1750 247 2026 523 
Q 2303 800 2303 1197 
Q 2303 1581 2056 1914 
Q 1809 2247 1375 2428 
Q 1034 2569 447 2591 
L 1259 4238 
L 2778 4238 
z
" transform="scale(0.015625)"/>
       </defs>
       <use xlink:href="#TimesNewRomanPSMT-30"/>
       <use xlink:href="#TimesNewRomanPSMT-2e" x="50"/>
       <use xlink:href="#TimesNewRomanPSMT-35" x="75"/>
      </g>
     </g>
    </g>
    <g id="text_19">
     <!-- Rotation (rad) -->
     <g transform="translate(217.373671 102.179687) rotate(-90) scale(0.1 -0.1)">
      <defs>
       <path id="TimesNewRomanPSMT-52" d="M 4325 0 
L 3194 0 
L 1759 1981 
Q 1600 1975 1500 1975 
Q 1459 1975 1412 1976 
Q 1366 1978 1316 1981 
L 1316 750 
Q 1316 350 1403 253 
Q 1522 116 1759 116 
L 1925 116 
L 1925 0 
L 109 0 
L 109 116 
L 269 116 
Q 538 116 653 291 
Q 719 388 719 750 
L 719 3488 
Q 719 3888 631 3984 
Q 509 4122 269 4122 
L 109 4122 
L 109 4238 
L 1653 4238 
Q 2328 4238 2648 4139 
Q 2969 4041 3192 3777 
Q 3416 3513 3416 3147 
Q 3416 2756 3161 2468 
Q 2906 2181 2372 2063 
L 3247 847 
Q 3547 428 3762 290 
Q 3978 153 4325 116 
L 4325 0 
z
M 1316 2178 
Q 1375 2178 1419 2176 
Q 1463 2175 1491 2175 
Q 2097 2175 2405 2437 
Q 2713 2700 2713 3106 
Q 2713 3503 2464 3751 
Q 2216 4000 1806 4000 
Q 1625 4000 1316 3941 
L 1316 2178 
z
" transform="scale(0.015625)"/>
       <path id="TimesNewRomanPSMT-6f" d="M 1600 2947 
Q 2250 2947 2644 2453 
Q 2978 2031 2978 1484 
Q 2978 1100 2793 706 
Q 2609 313 2286 112 
Q 1963 -88 1566 -88 
Q 919 -88 538 428 
Q 216 863 216 1403 
Q 216 1797 411 2186 
Q 606 2575 925 2761 
Q 1244 2947 1600 2947 
z
M 1503 2744 
Q 1338 2744 1170 2645 
Q 1003 2547 900 2300 
Q 797 2053 797 1666 
Q 797 1041 1045 587 
Q 1294 134 1700 134 
Q 2003 134 2200 384 
Q 2397 634 2397 1244 
Q 2397 2006 2069 2444 
Q 1847 2744 1503 2744 
z
" transform="scale(0.015625)"/>
       <path id="TimesNewRomanPSMT-64" d="M 2222 322 
Q 2013 103 1813 7 
Q 1613 -88 1381 -88 
Q 913 -88 563 304 
Q 213 697 213 1313 
Q 213 1928 600 2439 
Q 988 2950 1597 2950 
Q 1975 2950 2222 2709 
L 2222 3238 
Q 2222 3728 2198 3840 
Q 2175 3953 2125 3993 
Q 2075 4034 2000 4034 
Q 1919 4034 1784 3984 
L 1744 4094 
L 2597 4444 
L 2738 4444 
L 2738 1134 
Q 2738 631 2761 520 
Q 2784 409 2836 365 
Q 2888 322 2956 322 
Q 3041 322 3181 375 
L 3216 266 
L 2366 -88 
L 2222 -88 
L 2222 322 
z
M 2222 541 
L 2222 2016 
Q 2203 2228 2109 2403 
Q 2016 2578 1861 2667 
Q 1706 2756 1559 2756 
Q 1284 2756 1069 2509 
Q 784 2184 784 1559 
Q 784 928 1059 592 
Q 1334 256 1672 256 
Q 1956 256 2222 541 
z
" transform="scale(0.015625)"/>
      </defs>
      <use xlink:href="#TimesNewRomanPSMT-52"/>
      <use xlink:href="#TimesNewRomanPSMT-6f" x="66.699219"/>
      <use xlink:href="#TimesNewRomanPSMT-74" x="116.699219"/>
      <use xlink:href="#TimesNewRomanPSMT-61" x="144.482422"/>
      <use xlink:href="#TimesNewRomanPSMT-74" x="188.867188"/>
      <use xlink:href="#TimesNewRomanPSMT-69" x="216.650391"/>
      <use xlink:href="#TimesNewRomanPSMT-6f" x="244.433594"/>
      <use xlink:href="#TimesNewRomanPSMT-6e" x="294.433594"/>
      <use xlink:href="#TimesNewRomanPSMT-20" x="344.433594"/>
      <use xlink:href="#TimesNewRomanPSMT-28" x="369.433594"/>
      <use xlink:href="#TimesNewRomanPSMT-72" x="402.734375"/>
      <use xlink:href="#TimesNewRomanPSMT-61" x="436.035156"/>
      <use xlink:href="#TimesNewRomanPSMT-64" x="480.419922"/>
      <use xlink:href="#TimesNewRomanPSMT-29" x="530.419922"/>
     </g>
    </g>
   </g>
   <g id="patch_8">
    <path d="M 245.151796 127.84375 
L 245.151796 20.14375 
" style="fill: none; stroke: #000000; stroke-width: 0.8; stroke-linejoin: miter; stroke-linecap: square"/>
   </g>
   <g id="patch_9">
    <path d="M 401.641718 127.84375 
L 401.641718 20.14375 
" style="fill: none; stroke: #000000; stroke-width: 0.8; stroke-linejoin: miter; stroke-linecap: square"/>
   </g>
   <g id="patch_10">
    <path d="M 245.151796 127.84375 
L 401.641718 127.84375 
" style="fill: none; stroke: #000000; stroke-width: 0.8; stroke-linejoin: miter; stroke-linecap: square"/>
   </g>
   <g id="patch_11">
    <path d="M 245.151796 20.14375 
L 401.641718 20.14375 
" style="fill: none; stroke: #000000; stroke-width: 0.8; stroke-linejoin: miter; stroke-linecap: square"/>
   </g>
   <g id="line2d_28">
    <path d="M 252.264974 109.89375 
L 253.68761 109.751544 
L 255.110246 109.328858 
L 256.177223 108.797885 
L 257.244199 108.03961 
L 258.311176 107.022263 
L 259.733812 105.262617 
L 261.512106 102.554472 
L 264.713036 97.084907 
L 269.336602 89.254003 
L 271.826215 85.492199 
L 274.315827 82.066784 
L 276.094122 79.98494 
L 277.161098 79.032266 
L 278.228075 78.379214 
L 279.295052 78.043601 
L 280.362029 77.997361 
L 281.429005 78.184582 
L 282.851641 78.70473 
L 284.274277 79.480325 
L 285.696912 80.527968 
L 287.119548 81.878999 
L 288.542184 83.520119 
L 290.320478 85.913269 
L 292.098773 88.646268 
L 294.232726 92.355656 
L 297.789315 98.643503 
L 299.56761 101.215365 
L 301.345904 103.349013 
L 303.479858 105.523852 
L 304.902493 106.726081 
L 306.325129 107.625077 
L 307.392106 108.044635 
L 308.459083 108.221749 
L 309.526059 108.148022 
L 310.593036 107.817361 
L 311.660013 107.221832 
L 312.72699 106.358203 
L 313.793966 105.240084 
L 315.216602 103.422748 
L 317.350555 100.281071 
L 320.195827 95.724 
L 322.32978 91.883588 
L 325.886369 84.812108 
L 328.375982 80.159758 
L 330.154276 77.281366 
L 331.576912 75.352295 
L 332.999548 73.825946 
L 334.422183 72.704286 
L 335.844819 71.911907 
L 337.267454 71.360222 
L 338.69009 71.040548 
L 339.757067 71.009045 
L 340.824044 71.219032 
L 341.89102 71.709493 
L 342.957997 72.481897 
L 344.380633 73.884071 
L 346.158927 76.045617 
L 348.64854 79.506854 
L 354.694741 88.203427 
L 358.606989 93.201456 
L 360.029625 94.726023 
L 361.096602 95.603547 
L 362.163578 96.193846 
L 363.230555 96.487279 
L 364.297532 96.510306 
L 365.364509 96.304571 
L 366.431485 95.904359 
L 367.854121 95.091923 
L 369.276757 93.95623 
L 370.699392 92.49398 
L 372.122028 90.725578 
L 373.900322 88.111747 
L 375.678617 85.015324 
L 377.456912 81.421248 
L 383.503113 68.645577 
L 385.992725 64.195506 
L 388.126679 60.753192 
L 389.904973 58.278256 
L 391.327609 56.634859 
L 392.750245 55.340318 
L 393.817221 54.637701 
L 394.528539 54.316617 
L 394.528539 54.316617 
" clip-path="url(#p2c6d0091ca)" style="fill: none; stroke: #1f77b4; stroke-width: 0.9; stroke-linecap: square"/>
   </g>
   <g id="text_20">
    <!-- (b) -->
    <g transform="translate(248.281595 31.3955) scale(0.1 -0.1)">
     <defs>
      <path id="TimesNewRomanPSMT-62" d="M 984 2369 
Q 1400 2947 1881 2947 
Q 2322 2947 2650 2570 
Q 2978 2194 2978 1541 
Q 2978 778 2472 313 
Q 2038 -88 1503 -88 
Q 1253 -88 995 3 
Q 738 94 469 275 
L 469 3241 
Q 469 3728 445 3840 
Q 422 3953 372 3993 
Q 322 4034 247 4034 
Q 159 4034 28 3984 
L -16 4094 
L 844 4444 
L 984 4444 
L 984 2369 
z
M 984 2169 
L 984 456 
Q 1144 300 1314 220 
Q 1484 141 1663 141 
Q 1947 141 2192 453 
Q 2438 766 2438 1363 
Q 2438 1913 2192 2208 
Q 1947 2503 1634 2503 
Q 1469 2503 1303 2419 
Q 1178 2356 984 2169 
z
" transform="scale(0.015625)"/>
     </defs>
     <use xlink:href="#TimesNewRomanPSMT-28"/>
     <use xlink:href="#TimesNewRomanPSMT-62" x="33.300781"/>
     <use xlink:href="#TimesNewRomanPSMT-29" x="83.300781"/>
    </g>
   </g>
   <g id="text_21">
    <!-- Left interface -->
    <g transform="translate(296.333476 14.14375) scale(0.1 -0.1)">
     <use xlink:href="#TimesNewRomanPSMT-4c"/>
     <use xlink:href="#TimesNewRomanPSMT-65" x="61.083984"/>
     <use xlink:href="#TimesNewRomanPSMT-66" x="105.46875"/>
     <use xlink:href="#TimesNewRomanPSMT-74" x="138.769531"/>
     <use xlink:href="#TimesNewRomanPSMT-20" x="166.552734"/>
     <use xlink:href="#TimesNewRomanPSMT-69" x="191.552734"/>
     <use xlink:href="#TimesNewRomanPSMT-6e" x="219.335938"/>
     <use xlink:href="#TimesNewRomanPSMT-74" x="269.335938"/>
     <use xlink:href="#TimesNewRomanPSMT-65" x="297.119141"/>
     <use xlink:href="#TimesNewRomanPSMT-72" x="341.503906"/>
     <use xlink:href="#TimesNewRomanPSMT-66" x="374.804688"/>
     <use xlink:href="#TimesNewRomanPSMT-61" x="408.105469"/>
     <use xlink:href="#TimesNewRomanPSMT-63" x="452.490234"/>
     <use xlink:href="#TimesNewRomanPSMT-65" x="496.875"/>
    </g>
   </g>
   <g id="line2d_29">
    <path d="M 252.264974 109.751518 
L 254.043269 109.651579 
L 255.110246 109.37714 
L 256.177223 108.835155 
L 257.244199 108.110836 
L 258.666835 106.666585 
L 261.512106 102.737971 
L 263.290401 99.677474 
L 266.135672 94.735065 
L 266.84699 93.457168 
L 267.202649 92.972827 
L 267.913967 91.526696 
L 269.692261 88.792018 
L 270.04792 88.347151 
L 270.759238 87.109669 
L 273.960168 82.649094 
L 276.094122 80.073565 
L 277.516757 78.852374 
L 278.583734 78.27342 
L 279.295052 78.061325 
L 280.362029 77.993655 
L 281.429005 78.147166 
L 282.140323 78.370539 
L 282.851641 78.744916 
L 284.629935 79.601129 
L 285.696912 80.403456 
L 288.542184 83.381245 
L 292.098773 88.513506 
L 292.81009 89.660448 
L 293.521408 91.039849 
L 293.877067 91.541108 
L 295.299703 94.218455 
L 295.655362 94.733498 
L 296.722338 96.763595 
L 299.211951 100.657434 
L 299.923269 101.562206 
L 300.634587 102.534021 
L 302.057222 103.985165 
L 303.124199 105.09232 
L 304.902493 106.619592 
L 306.325129 107.534075 
L 307.747765 108.068856 
L 308.814741 108.168167 
L 309.881718 108.020923 
L 311.304354 107.420352 
L 312.72699 106.302232 
L 313.793966 105.283424 
L 315.216602 103.52808 
L 316.639238 101.4701 
L 318.417532 98.755158 
L 320.551486 95.117587 
L 320.907145 94.62886 
L 322.32978 92.022629 
L 322.685439 91.371933 
L 323.396757 89.809886 
L 325.53071 85.599941 
L 326.597687 83.474918 
L 329.087299 79.089218 
L 331.576912 75.333852 
L 334.422183 72.718222 
L 335.844819 71.903677 
L 337.623113 71.224472 
L 339.045749 70.981048 
L 340.112726 71.028041 
L 341.179702 71.308746 
L 342.246679 71.885193 
L 344.380633 73.689097 
L 347.937222 78.284072 
L 350.426834 82.036305 
L 354.694741 88.098714 
L 355.0504 88.474345 
L 355.406059 89.068337 
L 356.117377 89.948985 
L 357.184354 91.404828 
L 357.895671 92.259474 
L 359.318307 93.729415 
L 360.740943 95.128553 
L 361.807919 95.862583 
L 362.874896 96.285833 
L 363.941873 96.41804 
L 365.00885 96.295232 
L 366.075826 95.956882 
L 367.142803 95.461889 
L 368.921098 94.168956 
L 369.988074 93.152967 
L 371.41071 91.607211 
L 372.122028 90.65294 
L 373.189005 89.215581 
L 374.255981 87.52728 
L 375.678617 85.008769 
L 377.101253 82.186683 
L 378.523888 79.12556 
L 379.946524 75.849522 
L 382.791795 70.014872 
L 385.992725 64.111613 
L 386.704043 63.058656 
L 387.059702 62.312408 
L 388.126679 60.794847 
L 390.616291 57.388482 
L 392.394586 55.589904 
L 393.105904 55.005311 
L 394.17288 54.38939 
L 394.528539 54.278799 
L 394.528539 54.278799 
" clip-path="url(#p2c6d0091ca)" style="fill: none; stroke-dasharray: 4.07,1.76; stroke-dashoffset: 0; stroke: #d62728; stroke-width: 1.1"/>
   </g>
   <g id="legend_2">
    <g id="line2d_30">
     <path d="M 319.861249 31.39375 
L 328.861249 31.39375 
L 337.861249 31.39375 
" style="fill: none; stroke: #1f77b4; stroke-width: 0.9; stroke-linecap: square"/>
    </g>
    <g id="text_22">
     <!-- Numerical -->
     <g transform="translate(345.061249 34.54375) scale(0.09 -0.09)">
      <use xlink:href="#TimesNewRomanPSMT-4e"/>
      <use xlink:href="#TimesNewRomanPSMT-75" x="72.216797"/>
      <use xlink:href="#TimesNewRomanPSMT-6d" x="122.216797"/>
      <use xlink:href="#TimesNewRomanPSMT-65" x="200"/>
      <use xlink:href="#TimesNewRomanPSMT-72" x="244.384766"/>
      <use xlink:href="#TimesNewRomanPSMT-69" x="277.685547"/>
      <use xlink:href="#TimesNewRomanPSMT-63" x="305.46875"/>
      <use xlink:href="#TimesNewRomanPSMT-61" x="349.853516"/>
      <use xlink:href="#TimesNewRomanPSMT-6c" x="394.238281"/>
     </g>
    </g>
    <g id="line2d_31">
     <path d="M 319.861249 44.118906 
L 328.861249 44.118906 
L 337.861249 44.118906 
" style="fill: none; stroke-dasharray: 4.07,1.76; stroke-dashoffset: 0; stroke: #d62728; stroke-width: 1.1"/>
    </g>
    <g id="text_23">
     <!-- Experimental -->
     <g transform="translate(345.061249 47.268906) scale(0.09 -0.09)">
      <use xlink:href="#TimesNewRomanPSMT-45"/>
      <use xlink:href="#TimesNewRomanPSMT-78" x="61.083984"/>
      <use xlink:href="#TimesNewRomanPSMT-70" x="111.083984"/>
      <use xlink:href="#TimesNewRomanPSMT-65" x="161.083984"/>
      <use xlink:href="#TimesNewRomanPSMT-72" x="205.46875"/>
      <use xlink:href="#TimesNewRomanPSMT-69" x="238.769531"/>
      <use xlink:href="#TimesNewRomanPSMT-6d" x="266.552734"/>
      <use xlink:href="#TimesNewRomanPSMT-65" x="344.335938"/>
      <use xlink:href="#TimesNewRomanPSMT-6e" x="388.720703"/>
      <use xlink:href="#TimesNewRomanPSMT-74" x="438.720703"/>
      <use xlink:href="#TimesNewRomanPSMT-61" x="466.503906"/>
      <use xlink:href="#TimesNewRomanPSMT-6c" x="510.888672"/>
     </g>
    </g>
   </g>
  </g>
  <g id="axes_3">
   <g id="patch_12">
    <path d="M 41.921875 266.38375 
L 198.411796 266.38375 
L 198.411796 158.68375 
L 41.921875 158.68375 
z
" style="fill: #ffffff"/>
   </g>
   <g id="matplotlib.axis_5">
    <g id="xtick_11">
     <g id="line2d_32">
      <g>
       <use xlink:href="#m814926bc7c" x="49.035053" y="266.38375" style="stroke: #000000; stroke-width: 0.8"/>
      </g>
     </g>
     <g id="text_24">
      <!-- 0.0 -->
      <g transform="translate(42.785053 276.8275) scale(0.1 -0.1)">
       <use xlink:href="#TimesNewRomanPSMT-30"/>
       <use xlink:href="#TimesNewRomanPSMT-2e" x="50"/>
       <use xlink:href="#TimesNewRomanPSMT-30" x="75"/>
      </g>
     </g>
    </g>
    <g id="xtick_12">
     <g id="line2d_33">
      <g>
       <use xlink:href="#m814926bc7c" x="84.600944" y="266.38375" style="stroke: #000000; stroke-width: 0.8"/>
      </g>
     </g>
     <g id="text_25">
      <!-- 2.5 -->
      <g transform="translate(78.350944 276.8275) scale(0.1 -0.1)">
       <use xlink:href="#TimesNewRomanPSMT-32"/>
       <use xlink:href="#TimesNewRomanPSMT-2e" x="50"/>
       <use xlink:href="#TimesNewRomanPSMT-35" x="75"/>
      </g>
     </g>
    </g>
    <g id="xtick_13">
     <g id="line2d_34">
      <g>
       <use xlink:href="#m814926bc7c" x="120.166836" y="266.38375" style="stroke: #000000; stroke-width: 0.8"/>
      </g>
     </g>
     <g id="text_26">
      <!-- 5.0 -->
      <g transform="translate(113.916836 276.8275) scale(0.1 -0.1)">
       <use xlink:href="#TimesNewRomanPSMT-35"/>
       <use xlink:href="#TimesNewRomanPSMT-2e" x="50"/>
       <use xlink:href="#TimesNewRomanPSMT-30" x="75"/>
      </g>
     </g>
    </g>
    <g id="xtick_14">
     <g id="line2d_35">
      <g>
       <use xlink:href="#m814926bc7c" x="155.732727" y="266.38375" style="stroke: #000000; stroke-width: 0.8"/>
      </g>
     </g>
     <g id="text_27">
      <!-- 7.5 -->
      <g transform="translate(149.482727 276.8275) scale(0.1 -0.1)">
       <defs>
        <path id="TimesNewRomanPSMT-37" d="M 644 4238 
L 2916 4238 
L 2916 4119 
L 1503 -88 
L 1153 -88 
L 2419 3728 
L 1253 3728 
Q 900 3728 750 3644 
Q 488 3500 328 3200 
L 238 3234 
L 644 4238 
z
" transform="scale(0.015625)"/>
       </defs>
       <use xlink:href="#TimesNewRomanPSMT-37"/>
       <use xlink:href="#TimesNewRomanPSMT-2e" x="50"/>
       <use xlink:href="#TimesNewRomanPSMT-35" x="75"/>
      </g>
     </g>
    </g>
    <g id="xtick_15">
     <g id="line2d_36">
      <g>
       <use xlink:href="#m814926bc7c" x="191.298618" y="266.38375" style="stroke: #000000; stroke-width: 0.8"/>
      </g>
     </g>
     <g id="text_28">
      <!-- 10.0 -->
      <g transform="translate(182.548618 276.8275) scale(0.1 -0.1)">
       <use xlink:href="#TimesNewRomanPSMT-31"/>
       <use xlink:href="#TimesNewRomanPSMT-30" x="50"/>
       <use xlink:href="#TimesNewRomanPSMT-2e" x="100"/>
       <use xlink:href="#TimesNewRomanPSMT-30" x="125"/>
      </g>
     </g>
    </g>
    <g id="text_29">
     <!-- Time (s) -->
     <g transform="translate(103.264492 289.910312) scale(0.1 -0.1)">
      <defs>
       <path id="TimesNewRomanPSMT-54" d="M 3703 4238 
L 3750 3244 
L 3631 3244 
Q 3597 3506 3538 3619 
Q 3441 3800 3280 3886 
Q 3119 3972 2856 3972 
L 2259 3972 
L 2259 734 
Q 2259 344 2344 247 
Q 2463 116 2709 116 
L 2856 116 
L 2856 0 
L 1059 0 
L 1059 116 
L 1209 116 
Q 1478 116 1591 278 
Q 1659 378 1659 734 
L 1659 3972 
L 1150 3972 
Q 853 3972 728 3928 
Q 566 3869 450 3700 
Q 334 3531 313 3244 
L 194 3244 
L 244 4238 
L 3703 4238 
z
" transform="scale(0.015625)"/>
      </defs>
      <use xlink:href="#TimesNewRomanPSMT-54"/>
      <use xlink:href="#TimesNewRomanPSMT-69" x="57.583984"/>
      <use xlink:href="#TimesNewRomanPSMT-6d" x="85.367188"/>
      <use xlink:href="#TimesNewRomanPSMT-65" x="163.150391"/>
      <use xlink:href="#TimesNewRomanPSMT-20" x="207.535156"/>
      <use xlink:href="#TimesNewRomanPSMT-28" x="232.535156"/>
      <use xlink:href="#TimesNewRomanPSMT-73" x="265.835938"/>
      <use xlink:href="#TimesNewRomanPSMT-29" x="304.751953"/>
     </g>
    </g>
   </g>
   <g id="matplotlib.axis_6">
    <g id="ytick_14">
     <g id="line2d_37">
      <g>
       <use xlink:href="#m0f4d09f4bd" x="41.921875" y="266.38375" style="stroke: #000000; stroke-width: 0.8"/>
      </g>
     </g>
     <g id="text_30">
      <!-- −0.1 -->
      <g transform="translate(20.282813 269.855625) scale(0.1 -0.1)">
       <use xlink:href="#TimesNewRomanPSMT-2212"/>
       <use xlink:href="#TimesNewRomanPSMT-30" x="56.396484"/>
       <use xlink:href="#TimesNewRomanPSMT-2e" x="106.396484"/>
       <use xlink:href="#TimesNewRomanPSMT-31" x="131.396484"/>
      </g>
     </g>
    </g>
    <g id="ytick_15">
     <g id="line2d_38">
      <g>
       <use xlink:href="#m0f4d09f4bd" x="41.921875" y="248.43375" style="stroke: #000000; stroke-width: 0.8"/>
      </g>
     </g>
     <g id="text_31">
      <!-- 0.0 -->
      <g transform="translate(25.921875 251.905625) scale(0.1 -0.1)">
       <use xlink:href="#TimesNewRomanPSMT-30"/>
       <use xlink:href="#TimesNewRomanPSMT-2e" x="50"/>
       <use xlink:href="#TimesNewRomanPSMT-30" x="75"/>
      </g>
     </g>
    </g>
    <g id="ytick_16">
     <g id="line2d_39">
      <g>
       <use xlink:href="#m0f4d09f4bd" x="41.921875" y="230.48375" style="stroke: #000000; stroke-width: 0.8"/>
      </g>
     </g>
     <g id="text_32">
      <!-- 0.1 -->
      <g transform="translate(25.921875 233.955625) scale(0.1 -0.1)">
       <use xlink:href="#TimesNewRomanPSMT-30"/>
       <use xlink:href="#TimesNewRomanPSMT-2e" x="50"/>
       <use xlink:href="#TimesNewRomanPSMT-31" x="75"/>
      </g>
     </g>
    </g>
    <g id="ytick_17">
     <g id="line2d_40">
      <g>
       <use xlink:href="#m0f4d09f4bd" x="41.921875" y="212.53375" style="stroke: #000000; stroke-width: 0.8"/>
      </g>
     </g>
     <g id="text_33">
      <!-- 0.2 -->
      <g transform="translate(25.921875 216.005625) scale(0.1 -0.1)">
       <use xlink:href="#TimesNewRomanPSMT-30"/>
       <use xlink:href="#TimesNewRomanPSMT-2e" x="50"/>
       <use xlink:href="#TimesNewRomanPSMT-32" x="75"/>
      </g>
     </g>
    </g>
    <g id="ytick_18">
     <g id="line2d_41">
      <g>
       <use xlink:href="#m0f4d09f4bd" x="41.921875" y="194.58375" style="stroke: #000000; stroke-width: 0.8"/>
      </g>
     </g>
     <g id="text_34">
      <!-- 0.3 -->
      <g transform="translate(25.921875 198.055625) scale(0.1 -0.1)">
       <use xlink:href="#TimesNewRomanPSMT-30"/>
       <use xlink:href="#TimesNewRomanPSMT-2e" x="50"/>
       <use xlink:href="#TimesNewRomanPSMT-33" x="75"/>
      </g>
     </g>
    </g>
    <g id="ytick_19">
     <g id="line2d_42">
      <g>
       <use xlink:href="#m0f4d09f4bd" x="41.921875" y="176.63375" style="stroke: #000000; stroke-width: 0.8"/>
      </g>
     </g>
     <g id="text_35">
      <!-- 0.4 -->
      <g transform="translate(25.921875 180.105625) scale(0.1 -0.1)">
       <use xlink:href="#TimesNewRomanPSMT-30"/>
       <use xlink:href="#TimesNewRomanPSMT-2e" x="50"/>
       <use xlink:href="#TimesNewRomanPSMT-34" x="75"/>
      </g>
     </g>
    </g>
    <g id="ytick_20">
     <g id="line2d_43">
      <g>
       <use xlink:href="#m0f4d09f4bd" x="41.921875" y="158.68375" style="stroke: #000000; stroke-width: 0.8"/>
      </g>
     </g>
     <g id="text_36">
      <!-- 0.5 -->
      <g transform="translate(25.921875 162.155625) scale(0.1 -0.1)">
       <use xlink:href="#TimesNewRomanPSMT-30"/>
       <use xlink:href="#TimesNewRomanPSMT-2e" x="50"/>
       <use xlink:href="#TimesNewRomanPSMT-35" x="75"/>
      </g>
     </g>
    </g>
    <g id="text_37">
     <!-- Displacement (m) -->
     <g transform="translate(14.14375 248.493906) rotate(-90) scale(0.1 -0.1)">
      <use xlink:href="#TimesNewRomanPSMT-44"/>
      <use xlink:href="#TimesNewRomanPSMT-69" x="72.216797"/>
      <use xlink:href="#TimesNewRomanPSMT-73" x="100"/>
      <use xlink:href="#TimesNewRomanPSMT-70" x="138.916016"/>
      <use xlink:href="#TimesNewRomanPSMT-6c" x="188.916016"/>
      <use xlink:href="#TimesNewRomanPSMT-61" x="216.699219"/>
      <use xlink:href="#TimesNewRomanPSMT-63" x="261.083984"/>
      <use xlink:href="#TimesNewRomanPSMT-65" x="305.46875"/>
      <use xlink:href="#TimesNewRomanPSMT-6d" x="349.853516"/>
      <use xlink:href="#TimesNewRomanPSMT-65" x="427.636719"/>
      <use xlink:href="#TimesNewRomanPSMT-6e" x="472.021484"/>
      <use xlink:href="#TimesNewRomanPSMT-74" x="522.021484"/>
      <use xlink:href="#TimesNewRomanPSMT-20" x="549.804688"/>
      <use xlink:href="#TimesNewRomanPSMT-28" x="574.804688"/>
      <use xlink:href="#TimesNewRomanPSMT-6d" x="608.105469"/>
      <use xlink:href="#TimesNewRomanPSMT-29" x="685.888672"/>
     </g>
    </g>
   </g>
   <g id="patch_13">
    <path d="M 41.921875 266.38375 
L 41.921875 158.68375 
" style="fill: none; stroke: #000000; stroke-width: 0.8; stroke-linejoin: miter; stroke-linecap: square"/>
   </g>
   <g id="patch_14">
    <path d="M 198.411796 266.38375 
L 198.411796 158.68375 
" style="fill: none; stroke: #000000; stroke-width: 0.8; stroke-linejoin: miter; stroke-linecap: square"/>
   </g>
   <g id="patch_15">
    <path d="M 41.921875 266.38375 
L 198.411796 266.38375 
" style="fill: none; stroke: #000000; stroke-width: 0.8; stroke-linejoin: miter; stroke-linecap: square"/>
   </g>
   <g id="patch_16">
    <path d="M 41.921875 158.68375 
L 198.411796 158.68375 
" style="fill: none; stroke: #000000; stroke-width: 0.8; stroke-linejoin: miter; stroke-linecap: square"/>
   </g>
   <g id="line2d_44">
    <path d="M 49.035053 248.43375 
L 49.746371 248.349667 
L 50.457689 248.102603 
L 51.524666 247.435101 
L 52.591642 246.406508 
L 53.658619 245.002137 
L 54.725596 243.214599 
L 56.148231 240.262208 
L 57.570867 236.745708 
L 59.349162 231.722755 
L 61.483115 224.957072 
L 64.684045 213.83501 
L 67.173658 205.542317 
L 68.951952 200.420908 
L 70.374588 196.899449 
L 71.797224 193.915965 
L 72.8642 192.075555 
L 73.931177 190.630174 
L 74.998154 189.62409 
L 75.709472 189.207617 
L 76.420789 188.991581 
L 77.132107 188.966458 
L 77.843425 189.119107 
L 78.910402 189.652793 
L 79.977379 190.527065 
L 81.044355 191.741836 
L 82.111332 193.325289 
L 83.178309 195.315116 
L 84.245286 197.733484 
L 85.667921 201.60196 
L 87.446216 207.292794 
L 89.935828 216.222262 
L 94.559394 232.993048 
L 96.337689 238.644782 
L 98.115983 243.575359 
L 99.894278 247.783994 
L 101.316913 250.637464 
L 102.739549 252.982112 
L 103.806526 254.338804 
L 104.873502 255.281071 
L 105.58482 255.647447 
L 106.296138 255.785562 
L 107.007456 255.683921 
L 107.718774 255.336611 
L 108.430092 254.744254 
L 109.141409 253.914328 
L 110.208386 252.255748 
L 111.275363 250.161419 
L 112.697998 246.82455 
L 114.476293 242.003736 
L 116.610247 235.530675 
L 119.811177 224.929225 
L 124.434743 209.592337 
L 126.568696 203.125017 
L 127.991332 199.357564 
L 129.413967 196.272638 
L 130.480944 194.496376 
L 131.547921 193.199568 
L 132.614898 192.363088 
L 133.326215 192.04617 
L 134.037533 191.913825 
L 134.748851 191.964072 
L 135.460169 192.199699 
L 136.171487 192.626659 
L 136.882804 193.251087 
L 137.949781 194.563281 
L 139.016758 196.310896 
L 140.439394 199.231441 
L 142.217688 203.595391 
L 144.351642 209.578003 
L 146.485595 216.324833 
L 149.330866 226.278185 
L 152.531797 237.339322 
L 154.66575 243.854083 
L 156.088386 247.591846 
L 157.511021 250.666934 
L 158.577998 252.447784 
L 159.644975 253.738237 
L 160.356293 254.326485 
L 161.067611 254.707633 
L 161.778928 254.89603 
L 162.490246 254.907699 
L 163.201564 254.757488 
L 164.268541 254.251934 
L 165.335517 253.422208 
L 166.402494 252.258198 
L 167.469471 250.733387 
L 168.536448 248.819652 
L 169.603424 246.500927 
L 171.02606 242.787883 
L 172.448696 238.430354 
L 174.22699 232.279424 
L 181.340168 206.701744 
L 183.118463 201.551893 
L 184.541099 198.000264 
L 185.963734 194.945063 
L 187.38637 192.377773 
L 188.453347 190.797201 
L 189.520323 189.562817 
L 190.5873 188.740118 
L 191.298618 188.453147 
L 191.298618 188.453147 
" clip-path="url(#pe854360885)" style="fill: none; stroke: #1f77b4; stroke-width: 0.9; stroke-linecap: square"/>
   </g>
   <g id="text_38">
    <!-- (c) -->
    <g transform="translate(45.051673 169.9355) scale(0.1 -0.1)">
     <use xlink:href="#TimesNewRomanPSMT-28"/>
     <use xlink:href="#TimesNewRomanPSMT-63" x="33.300781"/>
     <use xlink:href="#TimesNewRomanPSMT-29" x="77.685547"/>
    </g>
   </g>
   <g id="text_39">
    <!-- Right interface -->
    <g transform="translate(90.317617 152.68375) scale(0.1 -0.1)">
     <defs>
      <path id="TimesNewRomanPSMT-67" d="M 966 1044 
Q 703 1172 562 1401 
Q 422 1631 422 1909 
Q 422 2334 742 2640 
Q 1063 2947 1563 2947 
Q 1972 2947 2272 2747 
L 2878 2747 
Q 3013 2747 3034 2739 
Q 3056 2731 3066 2713 
Q 3084 2684 3084 2613 
Q 3084 2531 3069 2500 
Q 3059 2484 3036 2475 
Q 3013 2466 2878 2466 
L 2506 2466 
Q 2681 2241 2681 1891 
Q 2681 1491 2375 1206 
Q 2069 922 1553 922 
Q 1341 922 1119 984 
Q 981 866 932 777 
Q 884 688 884 625 
Q 884 572 936 522 
Q 988 472 1138 450 
Q 1225 438 1575 428 
Q 2219 413 2409 384 
Q 2700 344 2873 169 
Q 3047 -6 3047 -263 
Q 3047 -616 2716 -925 
Q 2228 -1381 1444 -1381 
Q 841 -1381 425 -1109 
Q 191 -953 191 -784 
Q 191 -709 225 -634 
Q 278 -519 444 -313 
Q 466 -284 763 25 
Q 600 122 533 198 
Q 466 275 466 372 
Q 466 481 555 628 
Q 644 775 966 1044 
z
M 1509 2797 
Q 1278 2797 1122 2612 
Q 966 2428 966 2047 
Q 966 1553 1178 1281 
Q 1341 1075 1591 1075 
Q 1828 1075 1981 1253 
Q 2134 1431 2134 1813 
Q 2134 2309 1919 2591 
Q 1759 2797 1509 2797 
z
M 934 0 
Q 788 -159 713 -296 
Q 638 -434 638 -550 
Q 638 -700 819 -813 
Q 1131 -1006 1722 -1006 
Q 2284 -1006 2551 -807 
Q 2819 -609 2819 -384 
Q 2819 -222 2659 -153 
Q 2497 -84 2016 -72 
Q 1313 -53 934 0 
z
" transform="scale(0.015625)"/>
      <path id="TimesNewRomanPSMT-68" d="M 1041 4444 
L 1041 2350 
Q 1388 2731 1591 2839 
Q 1794 2947 1997 2947 
Q 2241 2947 2416 2812 
Q 2591 2678 2675 2391 
Q 2734 2191 2734 1659 
L 2734 647 
Q 2734 375 2778 275 
Q 2809 200 2884 156 
Q 2959 113 3159 113 
L 3159 0 
L 1753 0 
L 1753 113 
L 1819 113 
Q 2019 113 2097 173 
Q 2175 234 2206 353 
Q 2216 403 2216 647 
L 2216 1659 
Q 2216 2128 2167 2275 
Q 2119 2422 2012 2495 
Q 1906 2569 1756 2569 
Q 1603 2569 1437 2487 
Q 1272 2406 1041 2159 
L 1041 647 
Q 1041 353 1073 281 
Q 1106 209 1195 161 
Q 1284 113 1503 113 
L 1503 0 
L 84 0 
L 84 113 
Q 275 113 384 172 
Q 447 203 484 290 
Q 522 378 522 647 
L 522 3238 
Q 522 3728 498 3840 
Q 475 3953 426 3993 
Q 378 4034 297 4034 
Q 231 4034 84 3984 
L 41 4094 
L 897 4444 
L 1041 4444 
z
" transform="scale(0.015625)"/>
     </defs>
     <use xlink:href="#TimesNewRomanPSMT-52"/>
     <use xlink:href="#TimesNewRomanPSMT-69" x="66.699219"/>
     <use xlink:href="#TimesNewRomanPSMT-67" x="94.482422"/>
     <use xlink:href="#TimesNewRomanPSMT-68" x="144.482422"/>
     <use xlink:href="#TimesNewRomanPSMT-74" x="194.482422"/>
     <use xlink:href="#TimesNewRomanPSMT-20" x="222.265625"/>
     <use xlink:href="#TimesNewRomanPSMT-69" x="247.265625"/>
     <use xlink:href="#TimesNewRomanPSMT-6e" x="275.048828"/>
     <use xlink:href="#TimesNewRomanPSMT-74" x="325.048828"/>
     <use xlink:href="#TimesNewRomanPSMT-65" x="352.832031"/>
     <use xlink:href="#TimesNewRomanPSMT-72" x="397.216797"/>
     <use xlink:href="#TimesNewRomanPSMT-66" x="430.517578"/>
     <use xlink:href="#TimesNewRomanPSMT-61" x="463.818359"/>
     <use xlink:href="#TimesNewRomanPSMT-63" x="508.203125"/>
     <use xlink:href="#TimesNewRomanPSMT-65" x="552.587891"/>
    </g>
   </g>
   <g id="line2d_45">
    <path d="M 49.035053 248.102644 
L 50.457689 248.006522 
L 50.813348 247.886939 
L 52.235983 246.871274 
L 52.947301 246.048913 
L 53.658619 245.119659 
L 54.014278 244.327275 
L 55.081255 242.731825 
L 56.859549 238.695893 
L 57.570867 236.965926 
L 58.637844 234.011697 
L 60.06048 229.755088 
L 61.483115 225.203632 
L 62.550092 221.745457 
L 62.905751 220.151945 
L 63.617069 217.936862 
L 63.972728 216.335219 
L 64.684045 214.149053 
L 68.951952 200.197971 
L 72.8642 192.208803 
L 73.575518 191.215738 
L 74.286836 190.334303 
L 74.998154 189.667748 
L 76.420789 188.994587 
L 77.132107 188.94824 
L 77.843425 189.082775 
L 79.266061 189.792177 
L 79.977379 190.427715 
L 81.044355 191.581523 
L 83.889627 196.725598 
L 86.379239 203.534446 
L 87.801875 208.036108 
L 88.868851 212.099109 
L 89.580169 214.382169 
L 90.647146 218.641273 
L 91.002805 219.695782 
L 92.42544 225.15619 
L 95.626371 236.145072 
L 98.471642 244.325875 
L 99.18296 245.964692 
L 100.961254 249.711323 
L 102.38389 252.237391 
L 103.806526 254.122249 
L 104.873502 255.051287 
L 105.58482 255.461857 
L 106.296138 255.631915 
L 107.007456 255.557423 
L 107.718774 255.225563 
L 108.074433 255.023608 
L 109.497068 253.43322 
L 110.208386 252.155718 
L 110.919704 250.989112 
L 113.053657 245.863651 
L 114.831952 241.160051 
L 116.610247 235.613034 
L 117.321564 233.448875 
L 117.677223 231.78114 
L 118.7442 228.739495 
L 119.811177 225.089093 
L 121.233812 220.062734 
L 126.213037 204.322648 
L 128.346991 198.427186 
L 129.058308 197.066414 
L 129.769626 195.543016 
L 130.836603 193.969232 
L 131.90358 192.817847 
L 132.614898 192.221458 
L 133.681874 191.802505 
L 134.393192 191.75404 
L 135.10451 191.879672 
L 136.171487 192.384947 
L 136.882804 193.016535 
L 137.594122 193.793232 
L 139.016758 196.050085 
L 140.083735 198.080518 
L 143.284665 206.174478 
L 145.062959 211.128696 
L 145.418618 212.569309 
L 145.774277 213.491849 
L 146.841254 217.25618 
L 147.552572 219.376093 
L 148.619549 223.162681 
L 150.397843 229.416874 
L 151.46482 233.179768 
L 155.021409 244.515085 
L 156.444045 247.952528 
L 157.86668 250.959889 
L 159.644975 253.317245 
L 160.711952 254.165616 
L 161.423269 254.460462 
L 162.134587 254.583151 
L 163.201564 254.450536 
L 163.912882 254.118946 
L 164.6242 253.7276 
L 166.758153 251.513342 
L 167.82513 249.939575 
L 169.603424 246.254315 
L 172.093037 239.192677 
L 172.804355 236.79409 
L 173.515672 234.722517 
L 174.582649 231.090065 
L 174.938308 229.379017 
L 175.293967 228.295214 
L 176.360944 224.218536 
L 181.340168 206.567583 
L 182.051486 204.313871 
L 182.762804 202.0323 
L 184.18544 198.696741 
L 186.319393 193.919833 
L 187.742029 191.440705 
L 189.164665 189.527343 
L 190.231641 188.565043 
L 190.942959 188.135841 
L 191.298618 188.02053 
L 191.298618 188.02053 
" clip-path="url(#pe854360885)" style="fill: none; stroke-dasharray: 4.07,1.76; stroke-dashoffset: 0; stroke: #d62728; stroke-width: 1.1"/>
   </g>
   <g id="legend_3">
    <g id="line2d_46">
     <path d="M 116.631328 169.93375 
L 125.631328 169.93375 
L 134.631328 169.93375 
" style="fill: none; stroke: #1f77b4; stroke-width: 0.9; stroke-linecap: square"/>
    </g>
    <g id="text_40">
     <!-- Numerical -->
     <g transform="translate(141.831328 173.08375) scale(0.09 -0.09)">
      <use xlink:href="#TimesNewRomanPSMT-4e"/>
      <use xlink:href="#TimesNewRomanPSMT-75" x="72.216797"/>
      <use xlink:href="#TimesNewRomanPSMT-6d" x="122.216797"/>
      <use xlink:href="#TimesNewRomanPSMT-65" x="200"/>
      <use xlink:href="#TimesNewRomanPSMT-72" x="244.384766"/>
      <use xlink:href="#TimesNewRomanPSMT-69" x="277.685547"/>
      <use xlink:href="#TimesNewRomanPSMT-63" x="305.46875"/>
      <use xlink:href="#TimesNewRomanPSMT-61" x="349.853516"/>
      <use xlink:href="#TimesNewRomanPSMT-6c" x="394.238281"/>
     </g>
    </g>
    <g id="line2d_47">
     <path d="M 116.631328 182.658906 
L 125.631328 182.658906 
L 134.631328 182.658906 
" style="fill: none; stroke-dasharray: 4.07,1.76; stroke-dashoffset: 0; stroke: #d62728; stroke-width: 1.1"/>
    </g>
    <g id="text_41">
     <!-- Experimental -->
     <g transform="translate(141.831328 185.808906) scale(0.09 -0.09)">
      <use xlink:href="#TimesNewRomanPSMT-45"/>
      <use xlink:href="#TimesNewRomanPSMT-78" x="61.083984"/>
      <use xlink:href="#TimesNewRomanPSMT-70" x="111.083984"/>
      <use xlink:href="#TimesNewRomanPSMT-65" x="161.083984"/>
      <use xlink:href="#TimesNewRomanPSMT-72" x="205.46875"/>
      <use xlink:href="#TimesNewRomanPSMT-69" x="238.769531"/>
      <use xlink:href="#TimesNewRomanPSMT-6d" x="266.552734"/>
      <use xlink:href="#TimesNewRomanPSMT-65" x="344.335938"/>
      <use xlink:href="#TimesNewRomanPSMT-6e" x="388.720703"/>
      <use xlink:href="#TimesNewRomanPSMT-74" x="438.720703"/>
      <use xlink:href="#TimesNewRomanPSMT-61" x="466.503906"/>
      <use xlink:href="#TimesNewRomanPSMT-6c" x="510.888672"/>
     </g>
    </g>
   </g>
  </g>
  <g id="axes_4">
   <g id="patch_17">
    <path d="M 245.151796 266.38375 
L 401.641718 266.38375 
L 401.641718 158.68375 
L 245.151796 158.68375 
z
" style="fill: #ffffff"/>
   </g>
   <g id="matplotlib.axis_7">
    <g id="xtick_16">
     <g id="line2d_48">
      <g>
       <use xlink:href="#m814926bc7c" x="252.264974" y="266.38375" style="stroke: #000000; stroke-width: 0.8"/>
      </g>
     </g>
     <g id="text_42">
      <!-- 0.0 -->
      <g transform="translate(246.014974 276.8275) scale(0.1 -0.1)">
       <use xlink:href="#TimesNewRomanPSMT-30"/>
       <use xlink:href="#TimesNewRomanPSMT-2e" x="50"/>
       <use xlink:href="#TimesNewRomanPSMT-30" x="75"/>
      </g>
     </g>
    </g>
    <g id="xtick_17">
     <g id="line2d_49">
      <g>
       <use xlink:href="#m814926bc7c" x="287.830866" y="266.38375" style="stroke: #000000; stroke-width: 0.8"/>
      </g>
     </g>
     <g id="text_43">
      <!-- 2.5 -->
      <g transform="translate(281.580866 276.8275) scale(0.1 -0.1)">
       <use xlink:href="#TimesNewRomanPSMT-32"/>
       <use xlink:href="#TimesNewRomanPSMT-2e" x="50"/>
       <use xlink:href="#TimesNewRomanPSMT-35" x="75"/>
      </g>
     </g>
    </g>
    <g id="xtick_18">
     <g id="line2d_50">
      <g>
       <use xlink:href="#m814926bc7c" x="323.396757" y="266.38375" style="stroke: #000000; stroke-width: 0.8"/>
      </g>
     </g>
     <g id="text_44">
      <!-- 5.0 -->
      <g transform="translate(317.146757 276.8275) scale(0.1 -0.1)">
       <use xlink:href="#TimesNewRomanPSMT-35"/>
       <use xlink:href="#TimesNewRomanPSMT-2e" x="50"/>
       <use xlink:href="#TimesNewRomanPSMT-30" x="75"/>
      </g>
     </g>
    </g>
    <g id="xtick_19">
     <g id="line2d_51">
      <g>
       <use xlink:href="#m814926bc7c" x="358.962648" y="266.38375" style="stroke: #000000; stroke-width: 0.8"/>
      </g>
     </g>
     <g id="text_45">
      <!-- 7.5 -->
      <g transform="translate(352.712648 276.8275) scale(0.1 -0.1)">
       <use xlink:href="#TimesNewRomanPSMT-37"/>
       <use xlink:href="#TimesNewRomanPSMT-2e" x="50"/>
       <use xlink:href="#TimesNewRomanPSMT-35" x="75"/>
      </g>
     </g>
    </g>
    <g id="xtick_20">
     <g id="line2d_52">
      <g>
       <use xlink:href="#m814926bc7c" x="394.528539" y="266.38375" style="stroke: #000000; stroke-width: 0.8"/>
      </g>
     </g>
     <g id="text_46">
      <!-- 10.0 -->
      <g transform="translate(385.778539 276.8275) scale(0.1 -0.1)">
       <use xlink:href="#TimesNewRomanPSMT-31"/>
       <use xlink:href="#TimesNewRomanPSMT-30" x="50"/>
       <use xlink:href="#TimesNewRomanPSMT-2e" x="100"/>
       <use xlink:href="#TimesNewRomanPSMT-30" x="125"/>
      </g>
     </g>
    </g>
    <g id="text_47">
     <!-- Time (s) -->
     <g transform="translate(306.494413 289.910312) scale(0.1 -0.1)">
      <use xlink:href="#TimesNewRomanPSMT-54"/>
      <use xlink:href="#TimesNewRomanPSMT-69" x="57.583984"/>
      <use xlink:href="#TimesNewRomanPSMT-6d" x="85.367188"/>
      <use xlink:href="#TimesNewRomanPSMT-65" x="163.150391"/>
      <use xlink:href="#TimesNewRomanPSMT-20" x="207.535156"/>
      <use xlink:href="#TimesNewRomanPSMT-28" x="232.535156"/>
      <use xlink:href="#TimesNewRomanPSMT-73" x="265.835938"/>
      <use xlink:href="#TimesNewRomanPSMT-29" x="304.751953"/>
     </g>
    </g>
   </g>
   <g id="matplotlib.axis_8">
    <g id="ytick_21">
     <g id="line2d_53">
      <g>
       <use xlink:href="#m0f4d09f4bd" x="245.151796" y="266.38375" style="stroke: #000000; stroke-width: 0.8"/>
      </g>
     </g>
     <g id="text_48">
      <!-- −0.1 -->
      <g transform="translate(223.512734 269.855625) scale(0.1 -0.1)">
       <use xlink:href="#TimesNewRomanPSMT-2212"/>
       <use xlink:href="#TimesNewRomanPSMT-30" x="56.396484"/>
       <use xlink:href="#TimesNewRomanPSMT-2e" x="106.396484"/>
       <use xlink:href="#TimesNewRomanPSMT-31" x="131.396484"/>
      </g>
     </g>
    </g>
    <g id="ytick_22">
     <g id="line2d_54">
      <g>
       <use xlink:href="#m0f4d09f4bd" x="245.151796" y="248.43375" style="stroke: #000000; stroke-width: 0.8"/>
      </g>
     </g>
     <g id="text_49">
      <!-- 0.0 -->
      <g transform="translate(229.151796 251.905625) scale(0.1 -0.1)">
       <use xlink:href="#TimesNewRomanPSMT-30"/>
       <use xlink:href="#TimesNewRomanPSMT-2e" x="50"/>
       <use xlink:href="#TimesNewRomanPSMT-30" x="75"/>
      </g>
     </g>
    </g>
    <g id="ytick_23">
     <g id="line2d_55">
      <g>
       <use xlink:href="#m0f4d09f4bd" x="245.151796" y="230.48375" style="stroke: #000000; stroke-width: 0.8"/>
      </g>
     </g>
     <g id="text_50">
      <!-- 0.1 -->
      <g transform="translate(229.151796 233.955625) scale(0.1 -0.1)">
       <use xlink:href="#TimesNewRomanPSMT-30"/>
       <use xlink:href="#TimesNewRomanPSMT-2e" x="50"/>
       <use xlink:href="#TimesNewRomanPSMT-31" x="75"/>
      </g>
     </g>
    </g>
    <g id="ytick_24">
     <g id="line2d_56">
      <g>
       <use xlink:href="#m0f4d09f4bd" x="245.151796" y="212.53375" style="stroke: #000000; stroke-width: 0.8"/>
      </g>
     </g>
     <g id="text_51">
      <!-- 0.2 -->
      <g transform="translate(229.151796 216.005625) scale(0.1 -0.1)">
       <use xlink:href="#TimesNewRomanPSMT-30"/>
       <use xlink:href="#TimesNewRomanPSMT-2e" x="50"/>
       <use xlink:href="#TimesNewRomanPSMT-32" x="75"/>
      </g>
     </g>
    </g>
    <g id="ytick_25">
     <g id="line2d_57">
      <g>
       <use xlink:href="#m0f4d09f4bd" x="245.151796" y="194.58375" style="stroke: #000000; stroke-width: 0.8"/>
      </g>
     </g>
     <g id="text_52">
      <!-- 0.3 -->
      <g transform="translate(229.151796 198.055625) scale(0.1 -0.1)">
       <use xlink:href="#TimesNewRomanPSMT-30"/>
       <use xlink:href="#TimesNewRomanPSMT-2e" x="50"/>
       <use xlink:href="#TimesNewRomanPSMT-33" x="75"/>
      </g>
     </g>
    </g>
    <g id="ytick_26">
     <g id="line2d_58">
      <g>
       <use xlink:href="#m0f4d09f4bd" x="245.151796" y="176.63375" style="stroke: #000000; stroke-width: 0.8"/>
      </g>
     </g>
     <g id="text_53">
      <!-- 0.4 -->
      <g transform="translate(229.151796 180.105625) scale(0.1 -0.1)">
       <use xlink:href="#TimesNewRomanPSMT-30"/>
       <use xlink:href="#TimesNewRomanPSMT-2e" x="50"/>
       <use xlink:href="#TimesNewRomanPSMT-34" x="75"/>
      </g>
     </g>
    </g>
    <g id="ytick_27">
     <g id="line2d_59">
      <g>
       <use xlink:href="#m0f4d09f4bd" x="245.151796" y="158.68375" style="stroke: #000000; stroke-width: 0.8"/>
      </g>
     </g>
     <g id="text_54">
      <!-- 0.5 -->
      <g transform="translate(229.151796 162.155625) scale(0.1 -0.1)">
       <use xlink:href="#TimesNewRomanPSMT-30"/>
       <use xlink:href="#TimesNewRomanPSMT-2e" x="50"/>
       <use xlink:href="#TimesNewRomanPSMT-35" x="75"/>
      </g>
     </g>
    </g>
    <g id="text_55">
     <!-- Rotation (rad) -->
     <g transform="translate(217.373671 240.719687) rotate(-90) scale(0.1 -0.1)">
      <use xlink:href="#TimesNewRomanPSMT-52"/>
      <use xlink:href="#TimesNewRomanPSMT-6f" x="66.699219"/>
      <use xlink:href="#TimesNewRomanPSMT-74" x="116.699219"/>
      <use xlink:href="#TimesNewRomanPSMT-61" x="144.482422"/>
      <use xlink:href="#TimesNewRomanPSMT-74" x="188.867188"/>
      <use xlink:href="#TimesNewRomanPSMT-69" x="216.650391"/>
      <use xlink:href="#TimesNewRomanPSMT-6f" x="244.433594"/>
      <use xlink:href="#TimesNewRomanPSMT-6e" x="294.433594"/>
      <use xlink:href="#TimesNewRomanPSMT-20" x="344.433594"/>
      <use xlink:href="#TimesNewRomanPSMT-28" x="369.433594"/>
      <use xlink:href="#TimesNewRomanPSMT-72" x="402.734375"/>
      <use xlink:href="#TimesNewRomanPSMT-61" x="436.035156"/>
      <use xlink:href="#TimesNewRomanPSMT-64" x="480.419922"/>
      <use xlink:href="#TimesNewRomanPSMT-29" x="530.419922"/>
     </g>
    </g>
   </g>
   <g id="patch_18">
    <path d="M 245.151796 266.38375 
L 245.151796 158.68375 
" style="fill: none; stroke: #000000; stroke-width: 0.8; stroke-linejoin: miter; stroke-linecap: square"/>
   </g>
   <g id="patch_19">
    <path d="M 401.641718 266.38375 
L 401.641718 158.68375 
" style="fill: none; stroke: #000000; stroke-width: 0.8; stroke-linejoin: miter; stroke-linecap: square"/>
   </g>
   <g id="patch_20">
    <path d="M 245.151796 266.38375 
L 401.641718 266.38375 
" style="fill: none; stroke: #000000; stroke-width: 0.8; stroke-linejoin: miter; stroke-linecap: square"/>
   </g>
   <g id="patch_21">
    <path d="M 245.151796 158.68375 
L 401.641718 158.68375 
" style="fill: none; stroke: #000000; stroke-width: 0.8; stroke-linejoin: miter; stroke-linecap: square"/>
   </g>
   <g id="line2d_60">
    <path d="M 252.264974 248.43375 
L 253.68761 248.291544 
L 255.110246 247.868858 
L 256.177223 247.337885 
L 257.244199 246.57961 
L 258.311176 245.562263 
L 259.733812 243.802617 
L 261.512106 241.094472 
L 264.713036 235.624907 
L 269.336602 227.794003 
L 271.826215 224.032199 
L 274.315827 220.606784 
L 276.094122 218.52494 
L 277.161098 217.572266 
L 278.228075 216.919214 
L 279.295052 216.583601 
L 280.362029 216.537361 
L 281.429005 216.724582 
L 282.851641 217.24473 
L 284.274277 218.020325 
L 285.696912 219.067968 
L 287.119548 220.418999 
L 288.542184 222.060119 
L 290.320478 224.453269 
L 292.098773 227.186268 
L 294.232726 230.895656 
L 297.789315 237.183503 
L 299.56761 239.755365 
L 301.345904 241.889013 
L 303.479858 244.063852 
L 304.902493 245.266081 
L 306.325129 246.165077 
L 307.392106 246.584635 
L 308.459083 246.761749 
L 309.526059 246.688022 
L 310.593036 246.357361 
L 311.660013 245.761832 
L 312.72699 244.898203 
L 313.793966 243.780084 
L 315.216602 241.962748 
L 317.350555 238.821071 
L 320.195827 234.264 
L 322.32978 230.423588 
L 325.886369 223.352108 
L 328.375982 218.699758 
L 330.154276 215.821366 
L 331.576912 213.892295 
L 332.999548 212.365946 
L 334.422183 211.244286 
L 335.844819 210.451907 
L 337.267454 209.900222 
L 338.69009 209.580548 
L 339.757067 209.549045 
L 340.824044 209.759032 
L 341.89102 210.249493 
L 342.957997 211.021897 
L 344.380633 212.424071 
L 346.158927 214.585617 
L 348.64854 218.046854 
L 354.694741 226.743427 
L 358.606989 231.741456 
L 360.029625 233.266023 
L 361.096602 234.143547 
L 362.163578 234.733846 
L 363.230555 235.027279 
L 364.297532 235.050306 
L 365.364509 234.844571 
L 366.431485 234.444359 
L 367.854121 233.631923 
L 369.276757 232.49623 
L 370.699392 231.03398 
L 372.122028 229.265578 
L 373.900322 226.651747 
L 375.678617 223.555324 
L 377.456912 219.961248 
L 383.503113 207.185577 
L 385.992725 202.735506 
L 388.126679 199.293192 
L 389.904973 196.818256 
L 391.327609 195.174859 
L 392.750245 193.880318 
L 393.817221 193.177701 
L 394.528539 192.856617 
L 394.528539 192.856617 
" clip-path="url(#p0ee569adbc)" style="fill: none; stroke: #1f77b4; stroke-width: 0.9; stroke-linecap: square"/>
   </g>
   <g id="text_56">
    <!-- (d) -->
    <g transform="translate(248.281595 169.9355) scale(0.1 -0.1)">
     <use xlink:href="#TimesNewRomanPSMT-28"/>
     <use xlink:href="#TimesNewRomanPSMT-64" x="33.300781"/>
     <use xlink:href="#TimesNewRomanPSMT-29" x="83.300781"/>
    </g>
   </g>
   <g id="text_57">
    <!-- Right interface -->
    <g transform="translate(293.547538 152.68375) scale(0.1 -0.1)">
     <use xlink:href="#TimesNewRomanPSMT-52"/>
     <use xlink:href="#TimesNewRomanPSMT-69" x="66.699219"/>
     <use xlink:href="#TimesNewRomanPSMT-67" x="94.482422"/>
     <use xlink:href="#TimesNewRomanPSMT-68" x="144.482422"/>
     <use xlink:href="#TimesNewRomanPSMT-74" x="194.482422"/>
     <use xlink:href="#TimesNewRomanPSMT-20" x="222.265625"/>
     <use xlink:href="#TimesNewRomanPSMT-69" x="247.265625"/>
     <use xlink:href="#TimesNewRomanPSMT-6e" x="275.048828"/>
     <use xlink:href="#TimesNewRomanPSMT-74" x="325.048828"/>
     <use xlink:href="#TimesNewRomanPSMT-65" x="352.832031"/>
     <use xlink:href="#TimesNewRomanPSMT-72" x="397.216797"/>
     <use xlink:href="#TimesNewRomanPSMT-66" x="430.517578"/>
     <use xlink:href="#TimesNewRomanPSMT-61" x="463.818359"/>
     <use xlink:href="#TimesNewRomanPSMT-63" x="508.203125"/>
     <use xlink:href="#TimesNewRomanPSMT-65" x="552.587891"/>
    </g>
   </g>
   <g id="line2d_61">
    <path d="M 252.264974 248.291518 
L 254.043269 248.198472 
L 255.821564 247.584117 
L 256.88854 246.909924 
L 257.599858 246.260481 
L 258.311176 245.663043 
L 260.089471 243.376051 
L 265.780013 233.990611 
L 266.135672 233.19361 
L 266.84699 232.102433 
L 267.202649 231.323289 
L 268.269626 229.70673 
L 272.893191 222.534033 
L 273.960168 221.255511 
L 275.027145 219.856999 
L 276.805439 217.980099 
L 277.516757 217.400519 
L 278.228075 216.967244 
L 279.650711 216.551199 
L 280.717687 216.559971 
L 281.784664 216.789297 
L 283.562959 217.544004 
L 284.629935 218.245453 
L 285.341253 218.750158 
L 286.40823 219.623601 
L 287.475207 220.773989 
L 288.542184 221.959466 
L 292.454432 227.577948 
L 293.521408 229.449522 
L 294.588385 231.387826 
L 298.856292 238.643544 
L 301.345904 241.850032 
L 303.479858 243.978815 
L 304.902493 245.144554 
L 305.613811 245.667116 
L 307.036447 246.383916 
L 308.103424 246.651776 
L 309.1704 246.68749 
L 310.593036 246.339116 
L 312.015672 245.505773 
L 312.72699 244.939978 
L 313.438307 244.146423 
L 314.149625 243.437769 
L 317.706214 238.37913 
L 319.12885 236.130985 
L 320.195827 234.35747 
L 320.551486 233.782589 
L 320.907145 232.892228 
L 321.974121 231.232749 
L 323.041098 229.16819 
L 324.463734 226.214524 
L 328.731641 218.17465 
L 331.221253 214.384509 
L 331.932571 213.546154 
L 333.710865 211.768566 
L 335.48916 210.58027 
L 336.911796 209.973747 
L 338.69009 209.547364 
L 339.757067 209.512589 
L 340.824044 209.704007 
L 341.89102 210.167985 
L 343.313656 211.215928 
L 345.447609 213.465639 
L 346.158927 214.481001 
L 348.292881 217.269565 
L 348.64854 217.938432 
L 349.359857 218.956614 
L 355.761718 228.03284 
L 356.473036 228.852084 
L 357.540012 230.296962 
L 357.895671 230.646903 
L 358.606989 231.603994 
L 359.673966 232.724307 
L 361.096602 234.002516 
L 362.519237 234.71023 
L 363.586214 234.929844 
L 364.653191 234.899142 
L 365.720167 234.639114 
L 366.787144 234.211791 
L 369.632415 232.14598 
L 371.766369 229.630915 
L 372.833346 228.23491 
L 375.678617 223.342313 
L 377.81257 219.36138 
L 378.168229 218.351971 
L 378.523888 217.711613 
L 379.590865 215.308705 
L 383.858772 206.504098 
L 387.059702 200.998086 
L 389.904973 196.782501 
L 391.683268 194.763056 
L 392.394586 194.079465 
L 393.817221 193.077574 
L 394.528539 192.808148 
L 394.528539 192.808148 
" clip-path="url(#p0ee569adbc)" style="fill: none; stroke-dasharray: 4.07,1.76; stroke-dashoffset: 0; stroke: #d62728; stroke-width: 1.1"/>
   </g>
   <g id="legend_4">
    <g id="line2d_62">
     <path d="M 319.861249 169.93375 
L 328.861249 169.93375 
L 337.861249 169.93375 
" style="fill: none; stroke: #1f77b4; stroke-width: 0.9; stroke-linecap: square"/>
    </g>
    <g id="text_58">
     <!-- Numerical -->
     <g transform="translate(345.061249 173.08375) scale(0.09 -0.09)">
      <use xlink:href="#TimesNewRomanPSMT-4e"/>
      <use xlink:href="#TimesNewRomanPSMT-75" x="72.216797"/>
      <use xlink:href="#TimesNewRomanPSMT-6d" x="122.216797"/>
      <use xlink:href="#TimesNewRomanPSMT-65" x="200"/>
      <use xlink:href="#TimesNewRomanPSMT-72" x="244.384766"/>
      <use xlink:href="#TimesNewRomanPSMT-69" x="277.685547"/>
      <use xlink:href="#TimesNewRomanPSMT-63" x="305.46875"/>
      <use xlink:href="#TimesNewRomanPSMT-61" x="349.853516"/>
      <use xlink:href="#TimesNewRomanPSMT-6c" x="394.238281"/>
     </g>
    </g>
    <g id="line2d_63">
     <path d="M 319.861249 182.658906 
L 328.861249 182.658906 
L 337.861249 182.658906 
" style="fill: none; stroke-dasharray: 4.07,1.76; stroke-dashoffset: 0; stroke: #d62728; stroke-width: 1.1"/>
    </g>
    <g id="text_59">
     <!-- Experimental -->
     <g transform="translate(345.061249 185.808906) scale(0.09 -0.09)">
      <use xlink:href="#TimesNewRomanPSMT-45"/>
      <use xlink:href="#TimesNewRomanPSMT-78" x="61.083984"/>
      <use xlink:href="#TimesNewRomanPSMT-70" x="111.083984"/>
      <use xlink:href="#TimesNewRomanPSMT-65" x="161.083984"/>
      <use xlink:href="#TimesNewRomanPSMT-72" x="205.46875"/>
      <use xlink:href="#TimesNewRomanPSMT-69" x="238.769531"/>
      <use xlink:href="#TimesNewRomanPSMT-6d" x="266.552734"/>
      <use xlink:href="#TimesNewRomanPSMT-65" x="344.335938"/>
      <use xlink:href="#TimesNewRomanPSMT-6e" x="388.720703"/>
      <use xlink:href="#TimesNewRomanPSMT-74" x="438.720703"/>
      <use xlink:href="#TimesNewRomanPSMT-61" x="466.503906"/>
      <use xlink:href="#TimesNewRomanPSMT-6c" x="510.888672"/>
     </g>
    </g>
   </g>
  </g>
 </g>
 <defs>
  <clipPath id="p95373646f8">
   <rect x="41.921875" y="20.14375" width="156.489921" height="107.7"/>
  </clipPath>
  <clipPath id="p2c6d0091ca">
   <rect x="245.151796" y="20.14375" width="156.489921" height="107.7"/>
  </clipPath>
  <clipPath id="pe854360885">
   <rect x="41.921875" y="158.68375" width="156.489921" height="107.7"/>
  </clipPath>
  <clipPath id="p0ee569adbc">
   <rect x="245.151796" y="158.68375" width="156.489921" height="107.7"/>
  </clipPath>
 </defs>
</svg>
